<svg width="47" height="56" viewBox="0 0 47 56" fill="none" xmlns="http://www.w3.org/2000/svg">
<g clip-path="url(#clip0)">
<path d="M33.2435 37.1434C36.2684 34.3978 38.0416 30.5125 38.0416 26.4718C38.0416 18.5458 31.5224 12.0703 23.5428 12.0703C15.5632 12.0703 9.04395 18.5458 9.04395 26.4718C9.04395 30.6161 10.8693 34.605 13.9464 37.2988C16.2412 39.5782 16.0326 44.4477 15.9804 44.4995C15.9804 44.7586 16.0326 44.9658 16.2412 45.173C16.3977 45.3284 16.6584 45.432 16.8671 45.432H30.1664C30.4271 45.432 30.6358 45.3284 30.7922 45.173C30.9487 45.0176 31.053 44.7586 31.053 44.4995C31.053 44.4477 30.7922 39.5782 33.087 37.2988C33.1392 37.247 33.1913 37.1952 33.2435 37.1434ZM31.8875 35.9519C31.8353 36.0037 31.731 36.1073 31.731 36.1591C29.697 38.3349 29.3319 41.9093 29.2797 43.6189H17.7537C17.7015 41.9093 17.3365 38.1795 15.146 35.9519C12.3818 33.5689 10.765 30.0981 10.765 26.42C10.765 19.4265 16.4498 13.7798 23.4906 13.7798C30.5315 13.7798 36.2163 19.4265 36.2163 26.42C36.2163 30.0981 34.6516 33.5689 31.8875 35.9519Z" fill="#4D4C4C"/>
<path d="M23.4911 15.7483C23.0217 15.7483 22.6045 16.1627 22.6045 16.629C22.6045 17.0952 23.0217 17.5096 23.4911 17.5096C28.7587 17.5096 32.9832 21.7575 32.9832 26.9379C32.9832 27.4042 33.4004 27.8186 33.8698 27.8186C34.3392 27.8186 34.7564 27.4042 34.7564 26.9379C34.8086 20.7733 29.7496 15.7483 23.4911 15.7483Z" fill="#4D4C4C"/>
<path d="M31.4699 48.592C31.4699 47.4005 30.479 46.4163 29.2794 46.4163H17.7012C16.5017 46.4163 15.5107 47.4005 15.5107 48.592C15.5107 49.7835 16.5017 50.7678 17.7012 50.7678H29.2273C30.479 50.716 31.4699 49.7835 31.4699 48.592ZM29.2794 48.9547H17.7012C17.4926 48.9547 17.284 48.7992 17.284 48.5402C17.284 48.2812 17.4404 48.1258 17.7012 48.1258H29.2273C29.4359 48.1258 29.6445 48.2812 29.6445 48.5402C29.6445 48.7992 29.4881 48.9547 29.2794 48.9547Z" fill="#4D4C4C"/>
<path d="M27.5589 51.6484H19.4229C18.2234 51.6484 17.2324 52.6327 17.2324 53.8242C17.2324 55.0157 18.2234 56 19.4229 56H27.5589C28.7585 56 29.7494 55.0157 29.7494 53.8242C29.7494 52.5809 28.7585 51.6484 27.5589 51.6484ZM27.5589 54.1868H19.4229C19.2143 54.1868 19.0057 54.0314 19.0057 53.7724C19.0057 53.5134 19.1621 53.358 19.4229 53.358H27.5589C27.7676 53.358 27.9762 53.5134 27.9762 53.7724C27.9762 54.0314 27.7676 54.1868 27.5589 54.1868Z" fill="#4D4C4C"/>
<path d="M24.3777 6.88992V0.880666C24.3777 0.414431 23.9605 0 23.4911 0C23.0217 0 22.6045 0.414431 22.6045 0.880666V6.88992C22.6045 7.35615 23.0217 7.77058 23.4911 7.77058C24.0127 7.77058 24.3777 7.35615 24.3777 6.88992Z" fill="#4D4C4C"/>
<path d="M38.2506 4.45523C37.8334 4.14441 37.3118 4.29982 37.0511 4.66244L33.7132 9.63562C33.4003 10.05 33.5046 10.6199 33.9218 10.8789C34.0783 10.9825 34.2347 11.0343 34.3912 11.0343C34.7041 11.0343 34.9649 10.8789 35.1214 10.6199L38.4592 5.64672C38.7721 5.28409 38.6678 4.71425 38.2506 4.45523Z" fill="#4D4C4C"/>
<path d="M12.9032 10.8271C13.0596 10.8271 13.2161 10.7753 13.3725 10.6717C13.7898 10.4127 13.8941 9.84282 13.6333 9.42839L10.3998 4.40341C10.139 3.98898 9.56529 3.88537 9.14806 4.14439C8.73083 4.40341 8.62652 4.97325 8.88729 5.38768L12.1208 10.4127C12.3295 10.7235 12.5902 10.8271 12.9032 10.8271Z" fill="#4D4C4C"/>
<path d="M0.490701 15.0232L5.75827 17.8724C5.91473 17.9242 6.01904 17.976 6.1755 17.976C6.48843 17.976 6.80135 17.8206 6.95781 17.5098C7.16643 17.0953 7.00997 16.5255 6.59273 16.3183L1.32517 13.4691C0.907934 13.2619 0.334239 13.4173 0.125622 13.8317C-0.135149 14.2461 0.0213138 14.816 0.490701 15.0232Z" fill="#4D4C4C"/>
<path d="M40.806 17.976C40.9624 17.976 41.1189 17.9242 41.2232 17.8724L46.5429 15.0232C46.9601 14.816 47.1166 14.2461 46.908 13.8317C46.6994 13.4173 46.1257 13.2619 45.7084 13.4691L40.3887 16.3183C39.9715 16.5255 39.815 17.0953 40.0236 17.5098C40.1801 17.8206 40.493 17.976 40.806 17.976Z" fill="#4D4C4C"/>
</g>
<defs>
<clipPath id="clip0">
<rect width="47" height="56" fill="white"/>
</clipPath>
</defs>
</svg>
