<svg width="40" height="40" viewBox="0 0 40 40" fill="none" xmlns="http://www.w3.org/2000/svg">
<circle opacity="0.9" cx="20" cy="20" r="20" fill="#CB7A5C"/>
<path d="M19.5918 11.5918C22.2041 11.5918 22.5306 11.5918 23.5918 11.6734C26.2857 11.7551 27.5102 13.0612 27.5918 15.6734C27.6734 16.7347 27.6735 16.9796 27.6735 19.5918C27.6735 22.2041 27.6734 22.5306 27.5918 23.5102C27.5102 26.1224 26.2041 27.4286 23.5918 27.5102C22.5306 27.5918 22.2857 27.5918 19.5918 27.5918C16.9796 27.5918 16.653 27.5918 15.6734 27.5102C12.9796 27.4286 11.7551 26.1224 11.6734 23.5102C11.5918 22.449 11.5918 22.2041 11.5918 19.5918C11.5918 16.9796 11.5918 16.653 11.6734 15.6734C11.7551 13.0612 13.0612 11.7551 15.6734 11.6734C16.653 11.5918 16.9796 11.5918 19.5918 11.5918ZM19.5918 9.7959C16.8979 9.7959 16.5714 9.7959 15.5918 9.87753C12 10.0408 10.0408 12 9.87753 15.5918C9.7959 16.5714 9.7959 16.8979 9.7959 19.5918C9.7959 22.2857 9.7959 22.6122 9.87753 23.5918C10.0408 27.1837 12 29.1428 15.5918 29.3061C16.5714 29.3877 16.8979 29.3877 19.5918 29.3877C22.2857 29.3877 22.6122 29.3877 23.5918 29.3061C27.1837 29.1428 29.1428 27.1837 29.3061 23.5918C29.3877 22.6122 29.3877 22.2857 29.3877 19.5918C29.3877 16.8979 29.3877 16.5714 29.3061 15.5918C29.1428 12 27.1837 10.0408 23.5918 9.87753C22.6122 9.7959 22.2857 9.7959 19.5918 9.7959ZM19.5918 14.5306C16.8163 14.5306 14.5306 16.8163 14.5306 19.5918C14.5306 22.3673 16.8163 24.653 19.5918 24.653C22.3673 24.653 24.653 22.3673 24.653 19.5918C24.653 16.8163 22.3673 14.5306 19.5918 14.5306ZM19.5918 22.8571C17.7959 22.8571 16.3265 21.3877 16.3265 19.5918C16.3265 17.7959 17.7959 16.3265 19.5918 16.3265C21.3877 16.3265 22.8571 17.7959 22.8571 19.5918C22.8571 21.3877 21.3877 22.8571 19.5918 22.8571ZM24.8163 13.2245C24.1632 13.2245 23.6734 13.7143 23.6734 14.3673C23.6734 15.0204 24.1632 15.5102 24.8163 15.5102C25.4694 15.5102 25.9592 15.0204 25.9592 14.3673C25.9592 13.7143 25.4694 13.2245 24.8163 13.2245Z" fill="#FAFCFE"/>
</svg>
