<svg width="54" height="50" viewBox="0 0 54 50" fill="none" xmlns="http://www.w3.org/2000/svg">
<path d="M52.2509 43.0938V16.3524C52.2509 14.4496 50.6904 12.9036 48.7698 12.9036H44.517C44.4913 12.8271 44.4741 12.7507 44.457 12.6742L43.711 12.9036H40.067V11.5104L28.792 5.9209L13.9416 11.4425V12.9036H9.92887L9.51731 12.7761C9.50016 12.8186 9.49159 12.8611 9.48301 12.9036H5.22166C3.30105 12.9036 1.74055 14.4496 1.74055 16.3524V43.1023H0V46.5512C0 48.454 1.5605 50.0001 3.48111 50.0001H50.5103C52.4309 50.0001 53.9914 48.454 53.9914 46.5512V43.1023H52.2509V43.0938ZM29.6065 8.25695L37.0146 11.9267L29.6065 14.679V8.25695ZM29.6065 16.5138L38.3179 13.2773V22.715L29.6065 18.3997V16.5138ZM37.0146 23.9977L26.1254 28.0412V20.8207L28.6891 19.8693L37.0146 23.9977ZM26.1254 18.9858V17.805L27.866 17.1594V18.3402L26.1254 18.9858ZM27.866 8.10404V15.3246L25.3023 16.276L16.9768 12.1475L27.866 8.10404ZM15.6735 13.4302L24.3849 17.7456V19.6314L15.6735 22.8679V13.4302ZM24.3849 21.4748V27.8968L16.9768 24.227L24.3849 21.4748ZM25.208 30.2328L40.067 24.7112V18.0769H43.5481C43.5481 18.8924 43.4881 19.7163 43.3681 20.5233L45.0915 20.7782C45.2201 19.8947 45.2887 18.9943 45.2887 18.0769H47.0292V39.645H6.97078V18.0769H13.9416V24.6518L25.208 30.2328ZM3.48111 16.3524C3.48111 15.401 4.26135 14.628 5.22166 14.628H9.04573C8.99428 14.8913 8.93427 15.1547 8.89997 15.418L10.6234 15.6729C10.6748 15.3246 10.7434 14.9763 10.8206 14.628H13.933V16.3524H5.22166V41.3694H48.7698V16.3524H40.0584V14.628H43.1623C43.2309 14.9423 43.2995 15.2566 43.3423 15.5709L45.0657 15.3076C45.0314 15.0782 44.98 14.8574 44.9371 14.628H48.7612C49.7215 14.628 50.5017 15.401 50.5017 16.3524V43.1023H29.6065V44.8268H24.3849V43.1023H3.48111V16.3524ZM52.2509 46.5512C52.2509 47.5026 51.4706 48.2756 50.5103 48.2756H3.48111C2.5208 48.2756 1.74055 47.5026 1.74055 46.5512V44.8268H22.6443C22.6443 45.7782 23.4246 46.5512 24.3849 46.5512H29.6065C30.5668 46.5512 31.3471 45.7782 31.3471 44.8268H52.2509V46.5512Z" fill="#4D4C4C"/>
<path d="M16.6511 5.28382L15.5622 3.94165C14.8506 4.5023 14.1818 5.12242 13.5645 5.78501L14.842 6.95728C15.3993 6.35415 16.0081 5.7935 16.6511 5.28382Z" fill="#4D4C4C"/>
<path d="M20.9036 2.82865L20.2606 1.22314C19.4203 1.55444 18.5886 1.95369 17.7998 2.40391L18.6744 3.89899C19.3946 3.48274 20.1405 3.12596 20.9036 2.82865Z" fill="#4D4C4C"/>
<path d="M13.2989 8.86855L11.8584 7.90015C11.344 8.64768 10.8895 9.43769 10.4951 10.2447L12.0642 10.9922C12.4243 10.2617 12.8359 9.54812 13.2989 8.86855Z" fill="#4D4C4C"/>
<path d="M43.4451 10.1512C43.0507 9.34424 42.5877 8.55423 42.0647 7.81519L40.6328 8.79208C41.0958 9.46316 41.516 10.1767 41.8761 10.9073L43.4451 10.1512Z" fill="#4D4C4C"/>
<path d="M10.4515 18.1108H8.71094C8.71094 19.0113 8.77953 19.9202 8.91672 20.8122L10.6401 20.5573C10.5115 19.7503 10.4515 18.9263 10.4515 18.1108Z" fill="#4D4C4C"/>
<path d="M39.0892 6.88062L40.3582 5.69985C39.7408 5.04576 39.0635 4.42564 38.3518 3.86499L37.2715 5.21565C37.9145 5.72534 38.5319 6.28599 39.0892 6.88062Z" fill="#4D4C4C"/>
<path d="M36.0882 2.35294C35.2994 1.90272 34.4677 1.51196 33.6189 1.18066L32.9844 2.78617C33.7475 3.08348 34.502 3.44026 35.2137 3.83952L36.0882 2.35294Z" fill="#4D4C4C"/>
<path d="M31.0131 0.390758C30.1214 0.195379 29.2125 0.0594631 28.3036 0L28.1836 1.72443C29.0067 1.78389 29.8298 1.90282 30.6272 2.08121L31.0131 0.390758Z" fill="#4D4C4C"/>
<path d="M25.714 1.73303L25.5768 0.0170898C24.668 0.0850477 23.7591 0.220963 22.876 0.424837L23.2704 2.10679C24.0678 1.91991 24.8823 1.79249 25.714 1.73303Z" fill="#4D4C4C"/>
<path d="M38.4118 32.2376L37.3229 30.887C36.6798 31.3966 35.9939 31.8639 35.2822 32.2716L36.1568 33.7667C36.937 33.308 37.7001 32.7983 38.4118 32.2376Z" fill="#4D4C4C"/>
<path d="M33.6965 34.9388L33.062 33.3333C32.2989 33.6306 31.5015 33.8769 30.7041 34.0553L31.0899 35.7373C31.9731 35.5419 32.8476 35.27 33.6965 34.9388Z" fill="#4D4C4C"/>
<path d="M42.1166 28.2789L40.6762 27.3105C40.2132 27.9816 39.6901 28.6272 39.1328 29.2304L40.4104 30.4026C41.0277 29.7315 41.6022 29.018 42.1166 28.2789Z" fill="#4D4C4C"/>
<path d="M44.4826 23.4115L42.8192 22.9019C42.5792 23.6749 42.2791 24.4479 41.9189 25.1784L43.488 25.926C43.8739 25.119 44.2168 24.2695 44.4826 23.4115Z" fill="#4D4C4C"/>
<path d="M23.3301 34.0638C22.5241 33.8855 21.7353 33.6391 20.9636 33.3418L20.3291 34.9473C21.1779 35.2786 22.0525 35.5419 22.9442 35.7458L23.3301 34.0638Z" fill="#4D4C4C"/>
<path d="M28.3807 36.1451L28.2521 34.4207C27.4375 34.4801 26.5972 34.4801 25.7741 34.4207L25.6455 36.1451C26.0914 36.1791 26.5372 36.1961 26.9916 36.1961C27.4632 36.1961 27.9262 36.1791 28.3807 36.1451Z" fill="#4D4C4C"/>
<path d="M18.7428 32.2885C18.0312 31.8808 17.3453 31.422 16.7022 30.9124L15.6133 32.263C16.3249 32.8237 17.088 33.3418 17.8683 33.7836L18.7428 32.2885Z" fill="#4D4C4C"/>
<path d="M11.9014 28.3043C12.4158 29.0434 12.9903 29.7569 13.6076 30.4195L14.8852 29.2473C14.3279 28.6526 13.8048 28.007 13.3418 27.3359L11.9014 28.3043Z" fill="#4D4C4C"/>
<path d="M11.1898 22.9358L9.52637 23.4455C9.79217 24.3034 10.1351 25.1529 10.5295 25.9684L12.0986 25.2124C11.7385 24.4818 11.4298 23.7173 11.1898 22.9358Z" fill="#4D4C4C"/>
</svg>
