<svg width="503" height="199" viewBox="0 0 503 199" fill="none" xmlns="http://www.w3.org/2000/svg">
<mask id="path-1-outside-1" maskUnits="userSpaceOnUse" x="221" y="142.519" width="281" height="43" fill="black">
<rect fill="white" x="221" y="142.519" width="281" height="43"/>
<path d="M245.689 156.226C245.745 156.321 245.774 156.424 245.774 156.538C245.774 156.651 245.745 156.764 245.689 156.877L235.075 183.792C234.925 184.151 234.66 184.33 234.283 184.33C233.906 184.33 233.642 184.16 233.491 183.821L222.057 156.906C222.019 156.792 222 156.679 222 156.566C222 156.453 222.019 156.349 222.057 156.255C222.132 156.028 222.283 155.868 222.509 155.774C222.623 155.717 222.726 155.689 222.821 155.689C222.934 155.689 223.047 155.717 223.16 155.774C223.368 155.868 223.519 156.019 223.613 156.226L234.255 181.245L244.104 156.255C244.198 156.028 244.349 155.868 244.557 155.774C244.67 155.717 244.783 155.689 244.896 155.689C245.009 155.689 245.113 155.717 245.208 155.774C245.434 155.868 245.594 156.019 245.689 156.226Z"/>
<path d="M280.115 168.849C279.813 165.623 278.483 162.924 276.125 160.755C273.747 158.585 270.926 157.5 267.662 157.5C264.417 157.5 261.596 158.594 259.2 160.783C256.823 162.972 255.483 165.66 255.181 168.849H280.115ZM281.87 169.698C281.87 169.717 281.86 169.755 281.842 169.811C281.766 170.283 281.492 170.519 281.021 170.519H255.153C255.285 173.877 256.558 176.717 258.974 179.038C261.389 181.377 264.285 182.547 267.662 182.547C269.7 182.547 271.634 182.075 273.464 181.132C275.275 180.17 276.766 178.849 277.936 177.17C278.068 176.981 278.257 176.858 278.502 176.802H278.643C278.813 176.802 278.974 176.849 279.125 176.943C279.313 177.075 279.426 177.264 279.464 177.509C279.483 177.566 279.492 177.623 279.492 177.679C279.492 177.849 279.436 178 279.323 178.132C278.002 180.038 276.304 181.538 274.228 182.632C272.172 183.707 269.983 184.245 267.662 184.245C263.738 184.245 260.379 182.858 257.587 180.085C254.813 177.292 253.426 173.943 253.426 170.038V169.585C253.558 165.755 255.002 162.5 257.757 159.821C260.511 157.141 263.813 155.802 267.662 155.802C271.53 155.802 274.842 157.141 277.596 159.821C280.351 162.5 281.775 165.774 281.87 169.641V169.698Z"/>
<path d="M305.089 143.689C305.315 143.689 305.513 143.774 305.683 143.943C305.872 144.113 305.966 144.321 305.966 144.566C305.966 144.811 305.872 145.019 305.683 145.189C305.513 145.358 305.315 145.443 305.089 145.443C301.504 145.443 298.438 146.707 295.891 149.236C293.362 151.783 292.098 154.849 292.098 158.434V159.99H302.485C302.711 159.99 302.909 160.075 303.079 160.245C303.249 160.415 303.334 160.623 303.334 160.868C303.334 161.094 303.249 161.292 303.079 161.462C302.909 161.632 302.711 161.717 302.485 161.717H292.098V183.255C292.098 183.5 292.013 183.707 291.843 183.877C291.674 184.047 291.466 184.132 291.221 184.132C290.975 184.132 290.768 184.047 290.598 183.877C290.428 183.707 290.343 183.5 290.343 183.255V157.953C290.475 153.99 291.966 150.623 294.815 147.849C297.683 145.075 301.108 143.689 305.089 143.689Z"/>
<path d="M325.138 155.519C328.27 155.519 330.949 156.641 333.175 158.887C335.421 161.113 336.543 163.792 336.543 166.924V183.311C336.543 183.538 336.458 183.726 336.289 183.877C336.119 184.047 335.921 184.132 335.694 184.132C335.468 184.132 335.27 184.047 335.1 183.877C334.949 183.726 334.874 183.538 334.874 183.311V166.924C334.874 164.245 333.921 161.953 332.015 160.047C330.109 158.141 327.817 157.189 325.138 157.189C322.458 157.189 320.166 158.141 318.26 160.047C316.355 161.953 315.402 164.245 315.402 166.924V183.311C315.402 183.538 315.317 183.726 315.147 183.877C314.996 184.047 314.798 184.132 314.553 184.132C314.326 184.132 314.138 184.047 313.987 183.877C313.817 183.726 313.732 183.538 313.732 183.311V144.34C313.732 144.113 313.817 143.924 313.987 143.774C314.138 143.604 314.326 143.519 314.553 143.519C314.798 143.519 314.996 143.604 315.147 143.774C315.317 143.924 315.402 144.113 315.402 144.34V161.038C316.421 159.358 317.779 158.028 319.477 157.047C321.213 156.028 323.1 155.519 325.138 155.519Z"/>
<path d="M367.998 161.066C365.545 158.632 362.592 157.415 359.14 157.415C355.687 157.415 352.734 158.632 350.281 161.066C347.847 163.519 346.63 166.472 346.63 169.924C346.63 173.377 347.847 176.33 350.281 178.783C352.734 181.217 355.687 182.434 359.14 182.434C362.592 182.434 365.545 181.217 367.998 178.783C370.432 176.33 371.649 173.377 371.649 169.924C371.649 166.472 370.432 163.519 367.998 161.066ZM369.187 179.972C366.413 182.745 363.064 184.132 359.14 184.132C355.215 184.132 351.866 182.745 349.092 179.972C346.319 177.198 344.932 173.849 344.932 169.924C344.932 166.019 346.319 162.67 349.092 159.877C351.866 157.104 355.215 155.717 359.14 155.717C363.064 155.717 366.413 157.104 369.187 159.877C371.96 162.67 373.347 166.019 373.347 169.924C373.347 173.849 371.96 177.198 369.187 179.972ZM361.913 152.802C361.668 152.802 361.47 152.717 361.319 152.547C361.149 152.377 361.064 152.179 361.064 151.953C361.064 151.707 361.149 151.509 361.319 151.358C361.47 151.189 361.668 151.104 361.913 151.104H365.14C365.385 151.104 365.583 151.189 365.734 151.358C365.904 151.509 365.989 151.707 365.989 151.953C365.989 152.179 365.904 152.377 365.734 152.547C365.564 152.717 365.366 152.802 365.14 152.802H361.913ZM353.734 151.358C353.904 151.189 354.102 151.104 354.328 151.104H357.583C357.809 151.104 358.008 151.189 358.177 151.358C358.347 151.509 358.432 151.707 358.432 151.953C358.432 152.179 358.347 152.377 358.177 152.547C358.008 152.717 357.809 152.802 357.583 152.802H354.328C354.102 152.802 353.904 152.717 353.734 152.547C353.583 152.377 353.508 152.179 353.508 151.953C353.508 151.707 353.583 151.509 353.734 151.358Z"/>
<path d="M393.679 155.519C396.83 155.519 399.519 156.632 401.745 158.858C403.972 161.085 405.085 163.774 405.085 166.924V183.311C405.085 183.538 405 183.726 404.83 183.877C404.679 184.047 404.491 184.132 404.264 184.132C404.019 184.132 403.821 184.047 403.67 183.877C403.5 183.726 403.415 183.538 403.415 183.311V166.924C403.415 164.245 402.462 161.953 400.557 160.047C398.651 158.141 396.358 157.189 393.679 157.189C391 157.189 388.708 158.141 386.802 160.047C384.896 161.953 383.943 164.245 383.943 166.924V183.311C383.943 183.538 383.858 183.726 383.689 183.877C383.538 184.047 383.34 184.132 383.094 184.132C382.868 184.132 382.679 184.047 382.528 183.877C382.358 183.726 382.274 183.538 382.274 183.311V166.755C382.33 163.641 383.462 160.99 385.67 158.802C387.896 156.613 390.566 155.519 393.679 155.519Z"/>
<path d="M424.992 155.519C428.143 155.519 430.832 156.632 433.058 158.858C435.285 161.085 436.398 163.774 436.398 166.924V183.311C436.398 183.538 436.313 183.726 436.143 183.877C435.992 184.047 435.804 184.132 435.577 184.132C435.332 184.132 435.134 184.047 434.983 183.877C434.813 183.726 434.728 183.538 434.728 183.311V166.924C434.728 164.245 433.775 161.953 431.87 160.047C429.964 158.141 427.672 157.189 424.992 157.189C422.313 157.189 420.021 158.141 418.115 160.047C416.209 161.953 415.257 164.245 415.257 166.924V183.311C415.257 183.538 415.172 183.726 415.002 183.877C414.851 184.047 414.653 184.132 414.408 184.132C414.181 184.132 413.992 184.047 413.842 183.877C413.672 183.726 413.587 183.538 413.587 183.311V166.755C413.643 163.641 414.775 160.99 416.983 158.802C419.209 156.613 421.879 155.519 424.992 155.519Z"/>
<path d="M468.051 155.519C468.296 155.519 468.494 155.604 468.645 155.774C468.815 155.943 468.9 156.141 468.9 156.368V172.726C468.9 175.877 467.758 178.566 465.475 180.792C463.211 183.019 460.466 184.132 457.24 184.132C454.051 184.132 451.325 183.038 449.06 180.849C446.796 178.66 445.636 176.009 445.579 172.896V156.368C445.579 156.141 445.664 155.943 445.834 155.774C446.004 155.604 446.202 155.519 446.428 155.519C446.674 155.519 446.872 155.604 447.023 155.774C447.192 155.943 447.277 156.141 447.277 156.368V172.726C447.277 175.406 448.249 177.689 450.192 179.575C452.155 181.481 454.504 182.434 457.24 182.434C459.994 182.434 462.343 181.481 464.287 179.575C466.23 177.689 467.202 175.406 467.202 172.726V156.368C467.202 156.141 467.287 155.943 467.457 155.774C467.626 155.604 467.825 155.519 468.051 155.519Z"/>
<path d="M489.034 155.519C492.185 155.519 494.874 156.632 497.1 158.858C499.326 161.085 500.44 163.774 500.44 166.924V183.311C500.44 183.538 500.355 183.726 500.185 183.877C500.034 184.047 499.845 184.132 499.619 184.132C499.374 184.132 499.175 184.047 499.025 183.877C498.855 183.726 498.77 183.538 498.77 183.311V166.924C498.77 164.245 497.817 161.953 495.911 160.047C494.006 158.141 491.713 157.189 489.034 157.189C486.355 157.189 484.062 158.141 482.157 160.047C480.251 161.953 479.298 164.245 479.298 166.924V183.311C479.298 183.538 479.213 183.726 479.043 183.877C478.892 184.047 478.694 184.132 478.449 184.132C478.223 184.132 478.034 184.047 477.883 183.877C477.713 183.726 477.628 183.538 477.628 183.311V166.755C477.685 163.641 478.817 160.99 481.025 158.802C483.251 156.613 485.921 155.519 489.034 155.519Z"/>
</mask>
<path d="M245.689 156.226C245.745 156.321 245.774 156.424 245.774 156.538C245.774 156.651 245.745 156.764 245.689 156.877L235.075 183.792C234.925 184.151 234.66 184.33 234.283 184.33C233.906 184.33 233.642 184.16 233.491 183.821L222.057 156.906C222.019 156.792 222 156.679 222 156.566C222 156.453 222.019 156.349 222.057 156.255C222.132 156.028 222.283 155.868 222.509 155.774C222.623 155.717 222.726 155.689 222.821 155.689C222.934 155.689 223.047 155.717 223.16 155.774C223.368 155.868 223.519 156.019 223.613 156.226L234.255 181.245L244.104 156.255C244.198 156.028 244.349 155.868 244.557 155.774C244.67 155.717 244.783 155.689 244.896 155.689C245.009 155.689 245.113 155.717 245.208 155.774C245.434 155.868 245.594 156.019 245.689 156.226Z" fill="#FAFCFE"/>
<path d="M280.115 168.849C279.813 165.623 278.483 162.924 276.125 160.755C273.747 158.585 270.926 157.5 267.662 157.5C264.417 157.5 261.596 158.594 259.2 160.783C256.823 162.972 255.483 165.66 255.181 168.849H280.115ZM281.87 169.698C281.87 169.717 281.86 169.755 281.842 169.811C281.766 170.283 281.492 170.519 281.021 170.519H255.153C255.285 173.877 256.558 176.717 258.974 179.038C261.389 181.377 264.285 182.547 267.662 182.547C269.7 182.547 271.634 182.075 273.464 181.132C275.275 180.17 276.766 178.849 277.936 177.17C278.068 176.981 278.257 176.858 278.502 176.802H278.643C278.813 176.802 278.974 176.849 279.125 176.943C279.313 177.075 279.426 177.264 279.464 177.509C279.483 177.566 279.492 177.623 279.492 177.679C279.492 177.849 279.436 178 279.323 178.132C278.002 180.038 276.304 181.538 274.228 182.632C272.172 183.707 269.983 184.245 267.662 184.245C263.738 184.245 260.379 182.858 257.587 180.085C254.813 177.292 253.426 173.943 253.426 170.038V169.585C253.558 165.755 255.002 162.5 257.757 159.821C260.511 157.141 263.813 155.802 267.662 155.802C271.53 155.802 274.842 157.141 277.596 159.821C280.351 162.5 281.775 165.774 281.87 169.641V169.698Z" fill="#FAFCFE"/>
<path d="M305.089 143.689C305.315 143.689 305.513 143.774 305.683 143.943C305.872 144.113 305.966 144.321 305.966 144.566C305.966 144.811 305.872 145.019 305.683 145.189C305.513 145.358 305.315 145.443 305.089 145.443C301.504 145.443 298.438 146.707 295.891 149.236C293.362 151.783 292.098 154.849 292.098 158.434V159.99H302.485C302.711 159.99 302.909 160.075 303.079 160.245C303.249 160.415 303.334 160.623 303.334 160.868C303.334 161.094 303.249 161.292 303.079 161.462C302.909 161.632 302.711 161.717 302.485 161.717H292.098V183.255C292.098 183.5 292.013 183.707 291.843 183.877C291.674 184.047 291.466 184.132 291.221 184.132C290.975 184.132 290.768 184.047 290.598 183.877C290.428 183.707 290.343 183.5 290.343 183.255V157.953C290.475 153.99 291.966 150.623 294.815 147.849C297.683 145.075 301.108 143.689 305.089 143.689Z" fill="#FAFCFE"/>
<path d="M325.138 155.519C328.27 155.519 330.949 156.641 333.175 158.887C335.421 161.113 336.543 163.792 336.543 166.924V183.311C336.543 183.538 336.458 183.726 336.289 183.877C336.119 184.047 335.921 184.132 335.694 184.132C335.468 184.132 335.27 184.047 335.1 183.877C334.949 183.726 334.874 183.538 334.874 183.311V166.924C334.874 164.245 333.921 161.953 332.015 160.047C330.109 158.141 327.817 157.189 325.138 157.189C322.458 157.189 320.166 158.141 318.26 160.047C316.355 161.953 315.402 164.245 315.402 166.924V183.311C315.402 183.538 315.317 183.726 315.147 183.877C314.996 184.047 314.798 184.132 314.553 184.132C314.326 184.132 314.138 184.047 313.987 183.877C313.817 183.726 313.732 183.538 313.732 183.311V144.34C313.732 144.113 313.817 143.924 313.987 143.774C314.138 143.604 314.326 143.519 314.553 143.519C314.798 143.519 314.996 143.604 315.147 143.774C315.317 143.924 315.402 144.113 315.402 144.34V161.038C316.421 159.358 317.779 158.028 319.477 157.047C321.213 156.028 323.1 155.519 325.138 155.519Z" fill="#FAFCFE"/>
<path d="M367.998 161.066C365.545 158.632 362.592 157.415 359.14 157.415C355.687 157.415 352.734 158.632 350.281 161.066C347.847 163.519 346.63 166.472 346.63 169.924C346.63 173.377 347.847 176.33 350.281 178.783C352.734 181.217 355.687 182.434 359.14 182.434C362.592 182.434 365.545 181.217 367.998 178.783C370.432 176.33 371.649 173.377 371.649 169.924C371.649 166.472 370.432 163.519 367.998 161.066ZM369.187 179.972C366.413 182.745 363.064 184.132 359.14 184.132C355.215 184.132 351.866 182.745 349.092 179.972C346.319 177.198 344.932 173.849 344.932 169.924C344.932 166.019 346.319 162.67 349.092 159.877C351.866 157.104 355.215 155.717 359.14 155.717C363.064 155.717 366.413 157.104 369.187 159.877C371.96 162.67 373.347 166.019 373.347 169.924C373.347 173.849 371.96 177.198 369.187 179.972ZM361.913 152.802C361.668 152.802 361.47 152.717 361.319 152.547C361.149 152.377 361.064 152.179 361.064 151.953C361.064 151.707 361.149 151.509 361.319 151.358C361.47 151.189 361.668 151.104 361.913 151.104H365.14C365.385 151.104 365.583 151.189 365.734 151.358C365.904 151.509 365.989 151.707 365.989 151.953C365.989 152.179 365.904 152.377 365.734 152.547C365.564 152.717 365.366 152.802 365.14 152.802H361.913ZM353.734 151.358C353.904 151.189 354.102 151.104 354.328 151.104H357.583C357.809 151.104 358.008 151.189 358.177 151.358C358.347 151.509 358.432 151.707 358.432 151.953C358.432 152.179 358.347 152.377 358.177 152.547C358.008 152.717 357.809 152.802 357.583 152.802H354.328C354.102 152.802 353.904 152.717 353.734 152.547C353.583 152.377 353.508 152.179 353.508 151.953C353.508 151.707 353.583 151.509 353.734 151.358Z" fill="#FAFCFE"/>
<path d="M393.679 155.519C396.83 155.519 399.519 156.632 401.745 158.858C403.972 161.085 405.085 163.774 405.085 166.924V183.311C405.085 183.538 405 183.726 404.83 183.877C404.679 184.047 404.491 184.132 404.264 184.132C404.019 184.132 403.821 184.047 403.67 183.877C403.5 183.726 403.415 183.538 403.415 183.311V166.924C403.415 164.245 402.462 161.953 400.557 160.047C398.651 158.141 396.358 157.189 393.679 157.189C391 157.189 388.708 158.141 386.802 160.047C384.896 161.953 383.943 164.245 383.943 166.924V183.311C383.943 183.538 383.858 183.726 383.689 183.877C383.538 184.047 383.34 184.132 383.094 184.132C382.868 184.132 382.679 184.047 382.528 183.877C382.358 183.726 382.274 183.538 382.274 183.311V166.755C382.33 163.641 383.462 160.99 385.67 158.802C387.896 156.613 390.566 155.519 393.679 155.519Z" fill="#FAFCFE"/>
<path d="M424.992 155.519C428.143 155.519 430.832 156.632 433.058 158.858C435.285 161.085 436.398 163.774 436.398 166.924V183.311C436.398 183.538 436.313 183.726 436.143 183.877C435.992 184.047 435.804 184.132 435.577 184.132C435.332 184.132 435.134 184.047 434.983 183.877C434.813 183.726 434.728 183.538 434.728 183.311V166.924C434.728 164.245 433.775 161.953 431.87 160.047C429.964 158.141 427.672 157.189 424.992 157.189C422.313 157.189 420.021 158.141 418.115 160.047C416.209 161.953 415.257 164.245 415.257 166.924V183.311C415.257 183.538 415.172 183.726 415.002 183.877C414.851 184.047 414.653 184.132 414.408 184.132C414.181 184.132 413.992 184.047 413.842 183.877C413.672 183.726 413.587 183.538 413.587 183.311V166.755C413.643 163.641 414.775 160.99 416.983 158.802C419.209 156.613 421.879 155.519 424.992 155.519Z" fill="#FAFCFE"/>
<path d="M468.051 155.519C468.296 155.519 468.494 155.604 468.645 155.774C468.815 155.943 468.9 156.141 468.9 156.368V172.726C468.9 175.877 467.758 178.566 465.475 180.792C463.211 183.019 460.466 184.132 457.24 184.132C454.051 184.132 451.325 183.038 449.06 180.849C446.796 178.66 445.636 176.009 445.579 172.896V156.368C445.579 156.141 445.664 155.943 445.834 155.774C446.004 155.604 446.202 155.519 446.428 155.519C446.674 155.519 446.872 155.604 447.023 155.774C447.192 155.943 447.277 156.141 447.277 156.368V172.726C447.277 175.406 448.249 177.689 450.192 179.575C452.155 181.481 454.504 182.434 457.24 182.434C459.994 182.434 462.343 181.481 464.287 179.575C466.23 177.689 467.202 175.406 467.202 172.726V156.368C467.202 156.141 467.287 155.943 467.457 155.774C467.626 155.604 467.825 155.519 468.051 155.519Z" fill="#FAFCFE"/>
<path d="M489.034 155.519C492.185 155.519 494.874 156.632 497.1 158.858C499.326 161.085 500.44 163.774 500.44 166.924V183.311C500.44 183.538 500.355 183.726 500.185 183.877C500.034 184.047 499.845 184.132 499.619 184.132C499.374 184.132 499.175 184.047 499.025 183.877C498.855 183.726 498.77 183.538 498.77 183.311V166.924C498.77 164.245 497.817 161.953 495.911 160.047C494.006 158.141 491.713 157.189 489.034 157.189C486.355 157.189 484.062 158.141 482.157 160.047C480.251 161.953 479.298 164.245 479.298 166.924V183.311C479.298 183.538 479.213 183.726 479.043 183.877C478.892 184.047 478.694 184.132 478.449 184.132C478.223 184.132 478.034 184.047 477.883 183.877C477.713 183.726 477.628 183.538 477.628 183.311V166.755C477.685 163.641 478.817 160.99 481.025 158.802C483.251 156.613 485.921 155.519 489.034 155.519Z" fill="#FAFCFE"/>
<path d="M245.689 156.226C245.745 156.321 245.774 156.424 245.774 156.538C245.774 156.651 245.745 156.764 245.689 156.877L235.075 183.792C234.925 184.151 234.66 184.33 234.283 184.33C233.906 184.33 233.642 184.16 233.491 183.821L222.057 156.906C222.019 156.792 222 156.679 222 156.566C222 156.453 222.019 156.349 222.057 156.255C222.132 156.028 222.283 155.868 222.509 155.774C222.623 155.717 222.726 155.689 222.821 155.689C222.934 155.689 223.047 155.717 223.16 155.774C223.368 155.868 223.519 156.019 223.613 156.226L234.255 181.245L244.104 156.255C244.198 156.028 244.349 155.868 244.557 155.774C244.67 155.717 244.783 155.689 244.896 155.689C245.009 155.689 245.113 155.717 245.208 155.774C245.434 155.868 245.594 156.019 245.689 156.226Z" stroke="#FAFCFE" stroke-width="1.44906" mask="url(#path-1-outside-1)"/>
<path d="M280.115 168.849C279.813 165.623 278.483 162.924 276.125 160.755C273.747 158.585 270.926 157.5 267.662 157.5C264.417 157.5 261.596 158.594 259.2 160.783C256.823 162.972 255.483 165.66 255.181 168.849H280.115ZM281.87 169.698C281.87 169.717 281.86 169.755 281.842 169.811C281.766 170.283 281.492 170.519 281.021 170.519H255.153C255.285 173.877 256.558 176.717 258.974 179.038C261.389 181.377 264.285 182.547 267.662 182.547C269.7 182.547 271.634 182.075 273.464 181.132C275.275 180.17 276.766 178.849 277.936 177.17C278.068 176.981 278.257 176.858 278.502 176.802H278.643C278.813 176.802 278.974 176.849 279.125 176.943C279.313 177.075 279.426 177.264 279.464 177.509C279.483 177.566 279.492 177.623 279.492 177.679C279.492 177.849 279.436 178 279.323 178.132C278.002 180.038 276.304 181.538 274.228 182.632C272.172 183.707 269.983 184.245 267.662 184.245C263.738 184.245 260.379 182.858 257.587 180.085C254.813 177.292 253.426 173.943 253.426 170.038V169.585C253.558 165.755 255.002 162.5 257.757 159.821C260.511 157.141 263.813 155.802 267.662 155.802C271.53 155.802 274.842 157.141 277.596 159.821C280.351 162.5 281.775 165.774 281.87 169.641V169.698Z" stroke="#FAFCFE" stroke-width="1.44906" mask="url(#path-1-outside-1)"/>
<path d="M305.089 143.689C305.315 143.689 305.513 143.774 305.683 143.943C305.872 144.113 305.966 144.321 305.966 144.566C305.966 144.811 305.872 145.019 305.683 145.189C305.513 145.358 305.315 145.443 305.089 145.443C301.504 145.443 298.438 146.707 295.891 149.236C293.362 151.783 292.098 154.849 292.098 158.434V159.99H302.485C302.711 159.99 302.909 160.075 303.079 160.245C303.249 160.415 303.334 160.623 303.334 160.868C303.334 161.094 303.249 161.292 303.079 161.462C302.909 161.632 302.711 161.717 302.485 161.717H292.098V183.255C292.098 183.5 292.013 183.707 291.843 183.877C291.674 184.047 291.466 184.132 291.221 184.132C290.975 184.132 290.768 184.047 290.598 183.877C290.428 183.707 290.343 183.5 290.343 183.255V157.953C290.475 153.99 291.966 150.623 294.815 147.849C297.683 145.075 301.108 143.689 305.089 143.689Z" stroke="#FAFCFE" stroke-width="1.44906" mask="url(#path-1-outside-1)"/>
<path d="M325.138 155.519C328.27 155.519 330.949 156.641 333.175 158.887C335.421 161.113 336.543 163.792 336.543 166.924V183.311C336.543 183.538 336.458 183.726 336.289 183.877C336.119 184.047 335.921 184.132 335.694 184.132C335.468 184.132 335.27 184.047 335.1 183.877C334.949 183.726 334.874 183.538 334.874 183.311V166.924C334.874 164.245 333.921 161.953 332.015 160.047C330.109 158.141 327.817 157.189 325.138 157.189C322.458 157.189 320.166 158.141 318.26 160.047C316.355 161.953 315.402 164.245 315.402 166.924V183.311C315.402 183.538 315.317 183.726 315.147 183.877C314.996 184.047 314.798 184.132 314.553 184.132C314.326 184.132 314.138 184.047 313.987 183.877C313.817 183.726 313.732 183.538 313.732 183.311V144.34C313.732 144.113 313.817 143.924 313.987 143.774C314.138 143.604 314.326 143.519 314.553 143.519C314.798 143.519 314.996 143.604 315.147 143.774C315.317 143.924 315.402 144.113 315.402 144.34V161.038C316.421 159.358 317.779 158.028 319.477 157.047C321.213 156.028 323.1 155.519 325.138 155.519Z" stroke="#FAFCFE" stroke-width="1.44906" mask="url(#path-1-outside-1)"/>
<path d="M367.998 161.066C365.545 158.632 362.592 157.415 359.14 157.415C355.687 157.415 352.734 158.632 350.281 161.066C347.847 163.519 346.63 166.472 346.63 169.924C346.63 173.377 347.847 176.33 350.281 178.783C352.734 181.217 355.687 182.434 359.14 182.434C362.592 182.434 365.545 181.217 367.998 178.783C370.432 176.33 371.649 173.377 371.649 169.924C371.649 166.472 370.432 163.519 367.998 161.066ZM369.187 179.972C366.413 182.745 363.064 184.132 359.14 184.132C355.215 184.132 351.866 182.745 349.092 179.972C346.319 177.198 344.932 173.849 344.932 169.924C344.932 166.019 346.319 162.67 349.092 159.877C351.866 157.104 355.215 155.717 359.14 155.717C363.064 155.717 366.413 157.104 369.187 159.877C371.96 162.67 373.347 166.019 373.347 169.924C373.347 173.849 371.96 177.198 369.187 179.972ZM361.913 152.802C361.668 152.802 361.47 152.717 361.319 152.547C361.149 152.377 361.064 152.179 361.064 151.953C361.064 151.707 361.149 151.509 361.319 151.358C361.47 151.189 361.668 151.104 361.913 151.104H365.14C365.385 151.104 365.583 151.189 365.734 151.358C365.904 151.509 365.989 151.707 365.989 151.953C365.989 152.179 365.904 152.377 365.734 152.547C365.564 152.717 365.366 152.802 365.14 152.802H361.913ZM353.734 151.358C353.904 151.189 354.102 151.104 354.328 151.104H357.583C357.809 151.104 358.008 151.189 358.177 151.358C358.347 151.509 358.432 151.707 358.432 151.953C358.432 152.179 358.347 152.377 358.177 152.547C358.008 152.717 357.809 152.802 357.583 152.802H354.328C354.102 152.802 353.904 152.717 353.734 152.547C353.583 152.377 353.508 152.179 353.508 151.953C353.508 151.707 353.583 151.509 353.734 151.358Z" stroke="#FAFCFE" stroke-width="1.44906" mask="url(#path-1-outside-1)"/>
<path d="M393.679 155.519C396.83 155.519 399.519 156.632 401.745 158.858C403.972 161.085 405.085 163.774 405.085 166.924V183.311C405.085 183.538 405 183.726 404.83 183.877C404.679 184.047 404.491 184.132 404.264 184.132C404.019 184.132 403.821 184.047 403.67 183.877C403.5 183.726 403.415 183.538 403.415 183.311V166.924C403.415 164.245 402.462 161.953 400.557 160.047C398.651 158.141 396.358 157.189 393.679 157.189C391 157.189 388.708 158.141 386.802 160.047C384.896 161.953 383.943 164.245 383.943 166.924V183.311C383.943 183.538 383.858 183.726 383.689 183.877C383.538 184.047 383.34 184.132 383.094 184.132C382.868 184.132 382.679 184.047 382.528 183.877C382.358 183.726 382.274 183.538 382.274 183.311V166.755C382.33 163.641 383.462 160.99 385.67 158.802C387.896 156.613 390.566 155.519 393.679 155.519Z" stroke="#FAFCFE" stroke-width="1.44906" mask="url(#path-1-outside-1)"/>
<path d="M424.992 155.519C428.143 155.519 430.832 156.632 433.058 158.858C435.285 161.085 436.398 163.774 436.398 166.924V183.311C436.398 183.538 436.313 183.726 436.143 183.877C435.992 184.047 435.804 184.132 435.577 184.132C435.332 184.132 435.134 184.047 434.983 183.877C434.813 183.726 434.728 183.538 434.728 183.311V166.924C434.728 164.245 433.775 161.953 431.87 160.047C429.964 158.141 427.672 157.189 424.992 157.189C422.313 157.189 420.021 158.141 418.115 160.047C416.209 161.953 415.257 164.245 415.257 166.924V183.311C415.257 183.538 415.172 183.726 415.002 183.877C414.851 184.047 414.653 184.132 414.408 184.132C414.181 184.132 413.992 184.047 413.842 183.877C413.672 183.726 413.587 183.538 413.587 183.311V166.755C413.643 163.641 414.775 160.99 416.983 158.802C419.209 156.613 421.879 155.519 424.992 155.519Z" stroke="#FAFCFE" stroke-width="1.44906" mask="url(#path-1-outside-1)"/>
<path d="M468.051 155.519C468.296 155.519 468.494 155.604 468.645 155.774C468.815 155.943 468.9 156.141 468.9 156.368V172.726C468.9 175.877 467.758 178.566 465.475 180.792C463.211 183.019 460.466 184.132 457.24 184.132C454.051 184.132 451.325 183.038 449.06 180.849C446.796 178.66 445.636 176.009 445.579 172.896V156.368C445.579 156.141 445.664 155.943 445.834 155.774C446.004 155.604 446.202 155.519 446.428 155.519C446.674 155.519 446.872 155.604 447.023 155.774C447.192 155.943 447.277 156.141 447.277 156.368V172.726C447.277 175.406 448.249 177.689 450.192 179.575C452.155 181.481 454.504 182.434 457.24 182.434C459.994 182.434 462.343 181.481 464.287 179.575C466.23 177.689 467.202 175.406 467.202 172.726V156.368C467.202 156.141 467.287 155.943 467.457 155.774C467.626 155.604 467.825 155.519 468.051 155.519Z" stroke="#FAFCFE" stroke-width="1.44906" mask="url(#path-1-outside-1)"/>
<path d="M489.034 155.519C492.185 155.519 494.874 156.632 497.1 158.858C499.326 161.085 500.44 163.774 500.44 166.924V183.311C500.44 183.538 500.355 183.726 500.185 183.877C500.034 184.047 499.845 184.132 499.619 184.132C499.374 184.132 499.175 184.047 499.025 183.877C498.855 183.726 498.77 183.538 498.77 183.311V166.924C498.77 164.245 497.817 161.953 495.911 160.047C494.006 158.141 491.713 157.189 489.034 157.189C486.355 157.189 484.062 158.141 482.157 160.047C480.251 161.953 479.298 164.245 479.298 166.924V183.311C479.298 183.538 479.213 183.726 479.043 183.877C478.892 184.047 478.694 184.132 478.449 184.132C478.223 184.132 478.034 184.047 477.883 183.877C477.713 183.726 477.628 183.538 477.628 183.311V166.755C477.685 163.641 478.817 160.99 481.025 158.802C483.251 156.613 485.921 155.519 489.034 155.519Z" stroke="#FAFCFE" stroke-width="1.44906" mask="url(#path-1-outside-1)"/>
<mask id="path-2-outside-2" maskUnits="userSpaceOnUse" x="164.48" y="68.4873" width="338" height="63" fill="black">
<rect fill="white" x="164.48" y="68.4873" width="338" height="63"/>
<path d="M203.404 101.541C207.684 104.3 209.823 108.115 209.823 112.986V113.788C209.795 118.406 207.43 122.333 202.728 125.571C198.336 128.612 193.409 130.132 187.947 130.132C181.753 130.132 176.46 128.063 172.068 123.924C167.676 119.785 165.48 114.802 165.48 108.974C165.48 108.214 165.86 107.834 166.62 107.834C167.38 107.834 167.76 108.214 167.76 108.974C167.76 114.183 169.731 118.631 173.673 122.319C177.615 126.007 182.373 127.852 187.947 127.852C192.846 127.852 197.266 126.542 201.208 123.924C205.431 121.109 207.543 117.716 207.543 113.746V112.986C207.543 108.932 205.755 105.75 202.179 103.442C199.674 101.837 195.155 101.034 188.623 101.034C180.88 101.034 175.489 99.7815 172.448 97.2758C169.098 94.5166 167.423 90.7721 167.423 86.0421C167.423 80.9743 169.562 76.8638 173.842 73.7105C177.699 70.895 182.288 69.4873 187.609 69.4873C192.536 69.4873 196.999 70.9936 200.997 74.0061C205.276 77.1876 207.529 81.1292 207.754 85.831V85.9999C207.754 86.6193 207.402 86.9572 206.698 87.0135H206.614C206.332 87.0135 206.079 86.9149 205.854 86.7178C205.628 86.5208 205.516 86.2533 205.516 85.9154C205.29 81.8612 203.291 78.4404 199.519 75.6531C195.971 73.0629 192.002 71.7678 187.609 71.7678C182.908 71.7678 178.839 72.9925 175.404 75.442C171.575 78.1167 169.661 81.65 169.661 86.0421C169.661 90.0682 171.069 93.2356 173.884 95.5443C176.502 97.684 181.415 98.7539 188.623 98.7539L194.535 99.1762L196.943 99.4718L198.21 99.5985L200.194 100.105L202.053 100.865L203.404 101.541Z"/>
<path d="M264.361 69.614C265.122 69.614 265.502 69.9941 265.502 70.7543C265.502 71.5144 265.122 71.8945 264.361 71.8945H243.626V129.414C243.626 130.174 243.245 130.554 242.485 130.554C241.725 130.554 241.345 130.174 241.345 129.414V71.8945H220.652C219.891 71.8945 219.511 71.5144 219.511 70.7543C219.511 69.9941 219.891 69.614 220.652 69.614H264.361Z"/>
<path d="M283.594 80.003C278.188 85.465 275.485 92.0672 275.485 99.8097C275.485 107.552 278.188 114.154 283.594 119.616C289.027 125.106 295.559 127.852 303.189 127.852C310.819 127.852 317.337 125.106 322.742 119.616C328.176 114.154 330.893 107.552 330.893 99.8097C330.893 92.0672 328.176 85.465 322.742 80.003C317.337 74.5129 310.819 71.7678 303.189 71.7678C295.559 71.7678 289.027 74.5129 283.594 80.003ZM281.989 121.221C276.133 115.309 273.205 108.172 273.205 99.8097C273.205 91.4478 276.133 84.3106 281.989 78.3982C287.845 72.4576 294.912 69.4873 303.189 69.4873C311.438 69.4873 318.491 72.4576 324.347 78.3982C330.203 84.3106 333.131 91.4478 333.131 99.8097C333.131 108.172 330.203 115.309 324.347 121.221C318.491 127.162 311.438 130.132 303.189 130.132C294.912 130.132 287.845 127.162 281.989 121.221Z"/>
<path d="M388.345 69.4873C389.105 69.4873 389.485 69.8674 389.485 70.6276C389.485 71.3877 389.105 71.7678 388.345 71.7678H346.113V98.6694H381.039C381.799 98.6694 382.179 99.0495 382.179 99.8097C382.179 100.57 381.799 100.95 381.039 100.95H346.113V128.992C346.113 129.752 345.733 130.132 344.973 130.132C344.213 130.132 343.833 129.752 343.833 128.992V70.6276C343.833 69.8674 344.213 69.4873 344.973 69.4873H388.345Z"/>
<path d="M444.53 129.499L421.472 74.1328L398.667 129.499C398.526 129.808 398.301 130.019 397.991 130.132C397.822 130.217 397.653 130.259 397.484 130.259C397.343 130.259 397.203 130.231 397.062 130.174C396.471 129.977 396.175 129.668 396.175 129.245C396.175 129.104 396.217 128.935 396.302 128.738L420.289 70.5009C420.515 70.0222 420.909 69.7829 421.472 69.7829C422.035 69.7829 422.415 70.0222 422.612 70.5009L446.853 128.696C446.938 128.893 446.98 129.076 446.98 129.245C446.98 129.668 446.698 129.977 446.135 130.174C445.994 130.231 445.839 130.259 445.671 130.259C445.107 130.259 444.727 130.005 444.53 129.499Z"/>
<path d="M500.293 69.4873C501.053 69.4873 501.433 69.8674 501.433 70.6276V128.907C501.433 129.47 501.166 129.836 500.631 130.005C500.49 130.062 500.349 130.09 500.209 130.09C499.899 130.09 499.617 129.935 499.364 129.625L457.85 74.0906V128.992C457.85 129.752 457.47 130.132 456.71 130.132C455.95 130.132 455.57 129.752 455.57 128.992V70.6698C455.57 70.1067 455.823 69.7407 456.33 69.5718C456.471 69.5155 456.611 69.4873 456.752 69.4873C457.09 69.4873 457.386 69.6562 457.639 69.9941L499.153 125.487V70.6276C499.153 69.8674 499.533 69.4873 500.293 69.4873Z"/>
</mask>
<path d="M203.404 101.541C207.684 104.3 209.823 108.115 209.823 112.986V113.788C209.795 118.406 207.43 122.333 202.728 125.571C198.336 128.612 193.409 130.132 187.947 130.132C181.753 130.132 176.46 128.063 172.068 123.924C167.676 119.785 165.48 114.802 165.48 108.974C165.48 108.214 165.86 107.834 166.62 107.834C167.38 107.834 167.76 108.214 167.76 108.974C167.76 114.183 169.731 118.631 173.673 122.319C177.615 126.007 182.373 127.852 187.947 127.852C192.846 127.852 197.266 126.542 201.208 123.924C205.431 121.109 207.543 117.716 207.543 113.746V112.986C207.543 108.932 205.755 105.75 202.179 103.442C199.674 101.837 195.155 101.034 188.623 101.034C180.88 101.034 175.489 99.7815 172.448 97.2758C169.098 94.5166 167.423 90.7721 167.423 86.0421C167.423 80.9743 169.562 76.8638 173.842 73.7105C177.699 70.895 182.288 69.4873 187.609 69.4873C192.536 69.4873 196.999 70.9936 200.997 74.0061C205.276 77.1876 207.529 81.1292 207.754 85.831V85.9999C207.754 86.6193 207.402 86.9572 206.698 87.0135H206.614C206.332 87.0135 206.079 86.9149 205.854 86.7178C205.628 86.5208 205.516 86.2533 205.516 85.9154C205.29 81.8612 203.291 78.4404 199.519 75.6531C195.971 73.0629 192.002 71.7678 187.609 71.7678C182.908 71.7678 178.839 72.9925 175.404 75.442C171.575 78.1167 169.661 81.65 169.661 86.0421C169.661 90.0682 171.069 93.2356 173.884 95.5443C176.502 97.684 181.415 98.7539 188.623 98.7539L194.535 99.1762L196.943 99.4718L198.21 99.5985L200.194 100.105L202.053 100.865L203.404 101.541Z" fill="#FAFCFE"/>
<path d="M264.361 69.614C265.122 69.614 265.502 69.9941 265.502 70.7543C265.502 71.5144 265.122 71.8945 264.361 71.8945H243.626V129.414C243.626 130.174 243.245 130.554 242.485 130.554C241.725 130.554 241.345 130.174 241.345 129.414V71.8945H220.652C219.891 71.8945 219.511 71.5144 219.511 70.7543C219.511 69.9941 219.891 69.614 220.652 69.614H264.361Z" fill="#FAFCFE"/>
<path d="M283.594 80.003C278.188 85.465 275.485 92.0672 275.485 99.8097C275.485 107.552 278.188 114.154 283.594 119.616C289.027 125.106 295.559 127.852 303.189 127.852C310.819 127.852 317.337 125.106 322.742 119.616C328.176 114.154 330.893 107.552 330.893 99.8097C330.893 92.0672 328.176 85.465 322.742 80.003C317.337 74.5129 310.819 71.7678 303.189 71.7678C295.559 71.7678 289.027 74.5129 283.594 80.003ZM281.989 121.221C276.133 115.309 273.205 108.172 273.205 99.8097C273.205 91.4478 276.133 84.3106 281.989 78.3982C287.845 72.4576 294.912 69.4873 303.189 69.4873C311.438 69.4873 318.491 72.4576 324.347 78.3982C330.203 84.3106 333.131 91.4478 333.131 99.8097C333.131 108.172 330.203 115.309 324.347 121.221C318.491 127.162 311.438 130.132 303.189 130.132C294.912 130.132 287.845 127.162 281.989 121.221Z" fill="#FAFCFE"/>
<path d="M388.345 69.4873C389.105 69.4873 389.485 69.8674 389.485 70.6276C389.485 71.3877 389.105 71.7678 388.345 71.7678H346.113V98.6694H381.039C381.799 98.6694 382.179 99.0495 382.179 99.8097C382.179 100.57 381.799 100.95 381.039 100.95H346.113V128.992C346.113 129.752 345.733 130.132 344.973 130.132C344.213 130.132 343.833 129.752 343.833 128.992V70.6276C343.833 69.8674 344.213 69.4873 344.973 69.4873H388.345Z" fill="#FAFCFE"/>
<path d="M444.53 129.499L421.472 74.1328L398.667 129.499C398.526 129.808 398.301 130.019 397.991 130.132C397.822 130.217 397.653 130.259 397.484 130.259C397.343 130.259 397.203 130.231 397.062 130.174C396.471 129.977 396.175 129.668 396.175 129.245C396.175 129.104 396.217 128.935 396.302 128.738L420.289 70.5009C420.515 70.0222 420.909 69.7829 421.472 69.7829C422.035 69.7829 422.415 70.0222 422.612 70.5009L446.853 128.696C446.938 128.893 446.98 129.076 446.98 129.245C446.98 129.668 446.698 129.977 446.135 130.174C445.994 130.231 445.839 130.259 445.671 130.259C445.107 130.259 444.727 130.005 444.53 129.499Z" fill="#FAFCFE"/>
<path d="M500.293 69.4873C501.053 69.4873 501.433 69.8674 501.433 70.6276V128.907C501.433 129.47 501.166 129.836 500.631 130.005C500.49 130.062 500.349 130.09 500.209 130.09C499.899 130.09 499.617 129.935 499.364 129.625L457.85 74.0906V128.992C457.85 129.752 457.47 130.132 456.71 130.132C455.95 130.132 455.57 129.752 455.57 128.992V70.6698C455.57 70.1067 455.823 69.7407 456.33 69.5718C456.471 69.5155 456.611 69.4873 456.752 69.4873C457.09 69.4873 457.386 69.6562 457.639 69.9941L499.153 125.487V70.6276C499.153 69.8674 499.533 69.4873 500.293 69.4873Z" fill="#FAFCFE"/>
<path d="M203.404 101.541C207.684 104.3 209.823 108.115 209.823 112.986V113.788C209.795 118.406 207.43 122.333 202.728 125.571C198.336 128.612 193.409 130.132 187.947 130.132C181.753 130.132 176.46 128.063 172.068 123.924C167.676 119.785 165.48 114.802 165.48 108.974C165.48 108.214 165.86 107.834 166.62 107.834C167.38 107.834 167.76 108.214 167.76 108.974C167.76 114.183 169.731 118.631 173.673 122.319C177.615 126.007 182.373 127.852 187.947 127.852C192.846 127.852 197.266 126.542 201.208 123.924C205.431 121.109 207.543 117.716 207.543 113.746V112.986C207.543 108.932 205.755 105.75 202.179 103.442C199.674 101.837 195.155 101.034 188.623 101.034C180.88 101.034 175.489 99.7815 172.448 97.2758C169.098 94.5166 167.423 90.7721 167.423 86.0421C167.423 80.9743 169.562 76.8638 173.842 73.7105C177.699 70.895 182.288 69.4873 187.609 69.4873C192.536 69.4873 196.999 70.9936 200.997 74.0061C205.276 77.1876 207.529 81.1292 207.754 85.831V85.9999C207.754 86.6193 207.402 86.9572 206.698 87.0135H206.614C206.332 87.0135 206.079 86.9149 205.854 86.7178C205.628 86.5208 205.516 86.2533 205.516 85.9154C205.29 81.8612 203.291 78.4404 199.519 75.6531C195.971 73.0629 192.002 71.7678 187.609 71.7678C182.908 71.7678 178.839 72.9925 175.404 75.442C171.575 78.1167 169.661 81.65 169.661 86.0421C169.661 90.0682 171.069 93.2356 173.884 95.5443C176.502 97.684 181.415 98.7539 188.623 98.7539L194.535 99.1762L196.943 99.4718L198.21 99.5985L200.194 100.105L202.053 100.865L203.404 101.541Z" stroke="#FAFCFE" stroke-width="1.44151" mask="url(#path-2-outside-2)"/>
<path d="M264.361 69.614C265.122 69.614 265.502 69.9941 265.502 70.7543C265.502 71.5144 265.122 71.8945 264.361 71.8945H243.626V129.414C243.626 130.174 243.245 130.554 242.485 130.554C241.725 130.554 241.345 130.174 241.345 129.414V71.8945H220.652C219.891 71.8945 219.511 71.5144 219.511 70.7543C219.511 69.9941 219.891 69.614 220.652 69.614H264.361Z" stroke="#FAFCFE" stroke-width="1.44151" mask="url(#path-2-outside-2)"/>
<path d="M283.594 80.003C278.188 85.465 275.485 92.0672 275.485 99.8097C275.485 107.552 278.188 114.154 283.594 119.616C289.027 125.106 295.559 127.852 303.189 127.852C310.819 127.852 317.337 125.106 322.742 119.616C328.176 114.154 330.893 107.552 330.893 99.8097C330.893 92.0672 328.176 85.465 322.742 80.003C317.337 74.5129 310.819 71.7678 303.189 71.7678C295.559 71.7678 289.027 74.5129 283.594 80.003ZM281.989 121.221C276.133 115.309 273.205 108.172 273.205 99.8097C273.205 91.4478 276.133 84.3106 281.989 78.3982C287.845 72.4576 294.912 69.4873 303.189 69.4873C311.438 69.4873 318.491 72.4576 324.347 78.3982C330.203 84.3106 333.131 91.4478 333.131 99.8097C333.131 108.172 330.203 115.309 324.347 121.221C318.491 127.162 311.438 130.132 303.189 130.132C294.912 130.132 287.845 127.162 281.989 121.221Z" stroke="#FAFCFE" stroke-width="1.44151" mask="url(#path-2-outside-2)"/>
<path d="M388.345 69.4873C389.105 69.4873 389.485 69.8674 389.485 70.6276C389.485 71.3877 389.105 71.7678 388.345 71.7678H346.113V98.6694H381.039C381.799 98.6694 382.179 99.0495 382.179 99.8097C382.179 100.57 381.799 100.95 381.039 100.95H346.113V128.992C346.113 129.752 345.733 130.132 344.973 130.132C344.213 130.132 343.833 129.752 343.833 128.992V70.6276C343.833 69.8674 344.213 69.4873 344.973 69.4873H388.345Z" stroke="#FAFCFE" stroke-width="1.44151" mask="url(#path-2-outside-2)"/>
<path d="M444.53 129.499L421.472 74.1328L398.667 129.499C398.526 129.808 398.301 130.019 397.991 130.132C397.822 130.217 397.653 130.259 397.484 130.259C397.343 130.259 397.203 130.231 397.062 130.174C396.471 129.977 396.175 129.668 396.175 129.245C396.175 129.104 396.217 128.935 396.302 128.738L420.289 70.5009C420.515 70.0222 420.909 69.7829 421.472 69.7829C422.035 69.7829 422.415 70.0222 422.612 70.5009L446.853 128.696C446.938 128.893 446.98 129.076 446.98 129.245C446.98 129.668 446.698 129.977 446.135 130.174C445.994 130.231 445.839 130.259 445.671 130.259C445.107 130.259 444.727 130.005 444.53 129.499Z" stroke="#FAFCFE" stroke-width="1.44151" mask="url(#path-2-outside-2)"/>
<path d="M500.293 69.4873C501.053 69.4873 501.433 69.8674 501.433 70.6276V128.907C501.433 129.47 501.166 129.836 500.631 130.005C500.49 130.062 500.349 130.09 500.209 130.09C499.899 130.09 499.617 129.935 499.364 129.625L457.85 74.0906V128.992C457.85 129.752 457.47 130.132 456.71 130.132C455.95 130.132 455.57 129.752 455.57 128.992V70.6698C455.57 70.1067 455.823 69.7407 456.33 69.5718C456.471 69.5155 456.611 69.4873 456.752 69.4873C457.09 69.4873 457.386 69.6562 457.639 69.9941L499.153 125.487V70.6276C499.153 69.8674 499.533 69.4873 500.293 69.4873Z" stroke="#FAFCFE" stroke-width="1.44151" mask="url(#path-2-outside-2)"/>
<path d="M70.6698 4L4 70.6698L70.6698 137.34L137.34 70.6698L70.6698 4ZM70.6698 61.6604L4 128.33L70.6698 195L137.34 128.33L70.6698 61.6604Z" stroke="#E5AE39" stroke-width="5.40566"/>
</svg>
