<svg width="233" height="57" viewBox="0 0 233 57" fill="none" xmlns="http://www.w3.org/2000/svg">
<mask id="path-1-outside-1" maskUnits="userSpaceOnUse" x="45.8086" y="19.1719" width="95" height="19" fill="black">
<rect fill="white" x="45.8086" y="19.1719" width="95" height="19"/>
<path d="M57.332 29.0664C58.5195 29.832 59.1133 30.8906 59.1133 32.2422V32.4648C59.1055 33.7461 58.4492 34.8359 57.1445 35.7344C55.9258 36.5781 54.5586 37 53.043 37C51.3242 37 49.8555 36.4258 48.6367 35.2773C47.418 34.1289 46.8086 32.7461 46.8086 31.1289C46.8086 30.918 46.9141 30.8125 47.125 30.8125C47.3359 30.8125 47.4414 30.918 47.4414 31.1289C47.4414 32.5742 47.9883 33.8086 49.082 34.832C50.1758 35.8555 51.4961 36.3672 53.043 36.3672C54.4023 36.3672 55.6289 36.0039 56.7227 35.2773C57.8945 34.4961 58.4805 33.5547 58.4805 32.4531V32.2422C58.4805 31.1172 57.9844 30.2344 56.9922 29.5938C56.2969 29.1484 55.043 28.9258 53.2305 28.9258C51.082 28.9258 49.5859 28.5781 48.7422 27.8828C47.8125 27.1172 47.3477 26.0781 47.3477 24.7656C47.3477 23.3594 47.9414 22.2188 49.1289 21.3438C50.1992 20.5625 51.4727 20.1719 52.9492 20.1719C54.3164 20.1719 55.5547 20.5898 56.6641 21.4258C57.8516 22.3086 58.4766 23.4023 58.5391 24.707V24.7539C58.5391 24.9258 58.4414 25.0195 58.2461 25.0352H58.2227C58.1445 25.0352 58.0742 25.0078 58.0117 24.9531C57.9492 24.8984 57.918 24.8242 57.918 24.7305C57.8555 23.6055 57.3008 22.6562 56.2539 21.8828C55.2695 21.1641 54.168 20.8047 52.9492 20.8047C51.6445 20.8047 50.5156 21.1445 49.5625 21.8242C48.5 22.5664 47.9688 23.5469 47.9688 24.7656C47.9688 25.8828 48.3594 26.7617 49.1406 27.4023C49.8672 27.9961 51.2305 28.293 53.2305 28.293L54.8711 28.4102L55.5391 28.4922L55.8906 28.5273L56.4414 28.668L56.957 28.8789L57.332 29.0664Z"/>
<path d="M74.2469 20.207C74.4578 20.207 74.5633 20.3125 74.5633 20.5234C74.5633 20.7344 74.4578 20.8398 74.2469 20.8398H68.493V36.8008C68.493 37.0117 68.3875 37.1172 68.1766 37.1172C67.9656 37.1172 67.8602 37.0117 67.8602 36.8008V20.8398H62.118C61.907 20.8398 61.8016 20.7344 61.8016 20.5234C61.8016 20.3125 61.907 20.207 62.118 20.207H74.2469Z"/>
<path d="M79.5836 23.0898C78.0836 24.6055 77.3336 26.4375 77.3336 28.5859C77.3336 30.7344 78.0836 32.5664 79.5836 34.082C81.0914 35.6055 82.9039 36.3672 85.0211 36.3672C87.1383 36.3672 88.9469 35.6055 90.4469 34.082C91.9547 32.5664 92.7086 30.7344 92.7086 28.5859C92.7086 26.4375 91.9547 24.6055 90.4469 23.0898C88.9469 21.5664 87.1383 20.8047 85.0211 20.8047C82.9039 20.8047 81.0914 21.5664 79.5836 23.0898ZM79.1383 34.5273C77.5133 32.8867 76.7008 30.9062 76.7008 28.5859C76.7008 26.2656 77.5133 24.2852 79.1383 22.6445C80.7633 20.9961 82.7242 20.1719 85.0211 20.1719C87.3102 20.1719 89.2672 20.9961 90.8922 22.6445C92.5172 24.2852 93.3297 26.2656 93.3297 28.5859C93.3297 30.9062 92.5172 32.8867 90.8922 34.5273C89.2672 36.1758 87.3102 37 85.0211 37C82.7242 37 80.7633 36.1758 79.1383 34.5273Z"/>
<path d="M108.651 20.1719C108.862 20.1719 108.967 20.2773 108.967 20.4883C108.967 20.6992 108.862 20.8047 108.651 20.8047H96.932V28.2695H106.623C106.834 28.2695 106.94 28.375 106.94 28.5859C106.94 28.7969 106.834 28.9023 106.623 28.9023H96.932V36.6836C96.932 36.8945 96.8266 37 96.6156 37C96.4047 37 96.2992 36.8945 96.2992 36.6836V20.4883C96.2992 20.2773 96.4047 20.1719 96.6156 20.1719H108.651Z"/>
<path d="M124.241 36.8242L117.843 21.4609L111.515 36.8242C111.476 36.9102 111.413 36.9688 111.327 37C111.28 37.0234 111.234 37.0352 111.187 37.0352C111.148 37.0352 111.109 37.0273 111.07 37.0117C110.905 36.957 110.823 36.8711 110.823 36.7539C110.823 36.7148 110.835 36.668 110.859 36.6133L117.515 20.4531C117.577 20.3203 117.687 20.2539 117.843 20.2539C117.999 20.2539 118.105 20.3203 118.159 20.4531L124.886 36.6016C124.909 36.6562 124.921 36.707 124.921 36.7539C124.921 36.8711 124.843 36.957 124.687 37.0117C124.648 37.0273 124.605 37.0352 124.558 37.0352C124.402 37.0352 124.296 36.9648 124.241 36.8242Z"/>
<path d="M139.715 20.1719C139.926 20.1719 140.031 20.2773 140.031 20.4883V36.6602C140.031 36.8164 139.957 36.918 139.809 36.9648C139.77 36.9805 139.73 36.9883 139.691 36.9883C139.605 36.9883 139.527 36.9453 139.457 36.8594L127.938 21.4492V36.6836C127.938 36.8945 127.832 37 127.621 37C127.41 37 127.305 36.8945 127.305 36.6836V20.5C127.305 20.3438 127.375 20.2422 127.516 20.1953C127.555 20.1797 127.594 20.1719 127.633 20.1719C127.727 20.1719 127.809 20.2188 127.879 20.3125L139.398 35.7109V20.4883C139.398 20.2773 139.504 20.1719 139.715 20.1719Z"/>
</mask>
<path d="M57.332 29.0664C58.5195 29.832 59.1133 30.8906 59.1133 32.2422V32.4648C59.1055 33.7461 58.4492 34.8359 57.1445 35.7344C55.9258 36.5781 54.5586 37 53.043 37C51.3242 37 49.8555 36.4258 48.6367 35.2773C47.418 34.1289 46.8086 32.7461 46.8086 31.1289C46.8086 30.918 46.9141 30.8125 47.125 30.8125C47.3359 30.8125 47.4414 30.918 47.4414 31.1289C47.4414 32.5742 47.9883 33.8086 49.082 34.832C50.1758 35.8555 51.4961 36.3672 53.043 36.3672C54.4023 36.3672 55.6289 36.0039 56.7227 35.2773C57.8945 34.4961 58.4805 33.5547 58.4805 32.4531V32.2422C58.4805 31.1172 57.9844 30.2344 56.9922 29.5938C56.2969 29.1484 55.043 28.9258 53.2305 28.9258C51.082 28.9258 49.5859 28.5781 48.7422 27.8828C47.8125 27.1172 47.3477 26.0781 47.3477 24.7656C47.3477 23.3594 47.9414 22.2188 49.1289 21.3438C50.1992 20.5625 51.4727 20.1719 52.9492 20.1719C54.3164 20.1719 55.5547 20.5898 56.6641 21.4258C57.8516 22.3086 58.4766 23.4023 58.5391 24.707V24.7539C58.5391 24.9258 58.4414 25.0195 58.2461 25.0352H58.2227C58.1445 25.0352 58.0742 25.0078 58.0117 24.9531C57.9492 24.8984 57.918 24.8242 57.918 24.7305C57.8555 23.6055 57.3008 22.6562 56.2539 21.8828C55.2695 21.1641 54.168 20.8047 52.9492 20.8047C51.6445 20.8047 50.5156 21.1445 49.5625 21.8242C48.5 22.5664 47.9688 23.5469 47.9688 24.7656C47.9688 25.8828 48.3594 26.7617 49.1406 27.4023C49.8672 27.9961 51.2305 28.293 53.2305 28.293L54.8711 28.4102L55.5391 28.4922L55.8906 28.5273L56.4414 28.668L56.957 28.8789L57.332 29.0664Z" fill="#4C4C4C"/>
<path d="M74.2469 20.207C74.4578 20.207 74.5633 20.3125 74.5633 20.5234C74.5633 20.7344 74.4578 20.8398 74.2469 20.8398H68.493V36.8008C68.493 37.0117 68.3875 37.1172 68.1766 37.1172C67.9656 37.1172 67.8602 37.0117 67.8602 36.8008V20.8398H62.118C61.907 20.8398 61.8016 20.7344 61.8016 20.5234C61.8016 20.3125 61.907 20.207 62.118 20.207H74.2469Z" fill="#4C4C4C"/>
<path d="M79.5836 23.0898C78.0836 24.6055 77.3336 26.4375 77.3336 28.5859C77.3336 30.7344 78.0836 32.5664 79.5836 34.082C81.0914 35.6055 82.9039 36.3672 85.0211 36.3672C87.1383 36.3672 88.9469 35.6055 90.4469 34.082C91.9547 32.5664 92.7086 30.7344 92.7086 28.5859C92.7086 26.4375 91.9547 24.6055 90.4469 23.0898C88.9469 21.5664 87.1383 20.8047 85.0211 20.8047C82.9039 20.8047 81.0914 21.5664 79.5836 23.0898ZM79.1383 34.5273C77.5133 32.8867 76.7008 30.9062 76.7008 28.5859C76.7008 26.2656 77.5133 24.2852 79.1383 22.6445C80.7633 20.9961 82.7242 20.1719 85.0211 20.1719C87.3102 20.1719 89.2672 20.9961 90.8922 22.6445C92.5172 24.2852 93.3297 26.2656 93.3297 28.5859C93.3297 30.9062 92.5172 32.8867 90.8922 34.5273C89.2672 36.1758 87.3102 37 85.0211 37C82.7242 37 80.7633 36.1758 79.1383 34.5273Z" fill="#4C4C4C"/>
<path d="M108.651 20.1719C108.862 20.1719 108.967 20.2773 108.967 20.4883C108.967 20.6992 108.862 20.8047 108.651 20.8047H96.932V28.2695H106.623C106.834 28.2695 106.94 28.375 106.94 28.5859C106.94 28.7969 106.834 28.9023 106.623 28.9023H96.932V36.6836C96.932 36.8945 96.8266 37 96.6156 37C96.4047 37 96.2992 36.8945 96.2992 36.6836V20.4883C96.2992 20.2773 96.4047 20.1719 96.6156 20.1719H108.651Z" fill="#4C4C4C"/>
<path d="M124.241 36.8242L117.843 21.4609L111.515 36.8242C111.476 36.9102 111.413 36.9688 111.327 37C111.28 37.0234 111.234 37.0352 111.187 37.0352C111.148 37.0352 111.109 37.0273 111.07 37.0117C110.905 36.957 110.823 36.8711 110.823 36.7539C110.823 36.7148 110.835 36.668 110.859 36.6133L117.515 20.4531C117.577 20.3203 117.687 20.2539 117.843 20.2539C117.999 20.2539 118.105 20.3203 118.159 20.4531L124.886 36.6016C124.909 36.6562 124.921 36.707 124.921 36.7539C124.921 36.8711 124.843 36.957 124.687 37.0117C124.648 37.0273 124.605 37.0352 124.558 37.0352C124.402 37.0352 124.296 36.9648 124.241 36.8242Z" fill="#4C4C4C"/>
<path d="M139.715 20.1719C139.926 20.1719 140.031 20.2773 140.031 20.4883V36.6602C140.031 36.8164 139.957 36.918 139.809 36.9648C139.77 36.9805 139.73 36.9883 139.691 36.9883C139.605 36.9883 139.527 36.9453 139.457 36.8594L127.938 21.4492V36.6836C127.938 36.8945 127.832 37 127.621 37C127.41 37 127.305 36.8945 127.305 36.6836V20.5C127.305 20.3438 127.375 20.2422 127.516 20.1953C127.555 20.1797 127.594 20.1719 127.633 20.1719C127.727 20.1719 127.809 20.2188 127.879 20.3125L139.398 35.7109V20.4883C139.398 20.2773 139.504 20.1719 139.715 20.1719Z" fill="#4C4C4C"/>
<path d="M57.332 29.0664C58.5195 29.832 59.1133 30.8906 59.1133 32.2422V32.4648C59.1055 33.7461 58.4492 34.8359 57.1445 35.7344C55.9258 36.5781 54.5586 37 53.043 37C51.3242 37 49.8555 36.4258 48.6367 35.2773C47.418 34.1289 46.8086 32.7461 46.8086 31.1289C46.8086 30.918 46.9141 30.8125 47.125 30.8125C47.3359 30.8125 47.4414 30.918 47.4414 31.1289C47.4414 32.5742 47.9883 33.8086 49.082 34.832C50.1758 35.8555 51.4961 36.3672 53.043 36.3672C54.4023 36.3672 55.6289 36.0039 56.7227 35.2773C57.8945 34.4961 58.4805 33.5547 58.4805 32.4531V32.2422C58.4805 31.1172 57.9844 30.2344 56.9922 29.5938C56.2969 29.1484 55.043 28.9258 53.2305 28.9258C51.082 28.9258 49.5859 28.5781 48.7422 27.8828C47.8125 27.1172 47.3477 26.0781 47.3477 24.7656C47.3477 23.3594 47.9414 22.2188 49.1289 21.3438C50.1992 20.5625 51.4727 20.1719 52.9492 20.1719C54.3164 20.1719 55.5547 20.5898 56.6641 21.4258C57.8516 22.3086 58.4766 23.4023 58.5391 24.707V24.7539C58.5391 24.9258 58.4414 25.0195 58.2461 25.0352H58.2227C58.1445 25.0352 58.0742 25.0078 58.0117 24.9531C57.9492 24.8984 57.918 24.8242 57.918 24.7305C57.8555 23.6055 57.3008 22.6562 56.2539 21.8828C55.2695 21.1641 54.168 20.8047 52.9492 20.8047C51.6445 20.8047 50.5156 21.1445 49.5625 21.8242C48.5 22.5664 47.9688 23.5469 47.9688 24.7656C47.9688 25.8828 48.3594 26.7617 49.1406 27.4023C49.8672 27.9961 51.2305 28.293 53.2305 28.293L54.8711 28.4102L55.5391 28.4922L55.8906 28.5273L56.4414 28.668L56.957 28.8789L57.332 29.0664Z" stroke="#4C4C4C" stroke-width="0.4" mask="url(#path-1-outside-1)"/>
<path d="M74.2469 20.207C74.4578 20.207 74.5633 20.3125 74.5633 20.5234C74.5633 20.7344 74.4578 20.8398 74.2469 20.8398H68.493V36.8008C68.493 37.0117 68.3875 37.1172 68.1766 37.1172C67.9656 37.1172 67.8602 37.0117 67.8602 36.8008V20.8398H62.118C61.907 20.8398 61.8016 20.7344 61.8016 20.5234C61.8016 20.3125 61.907 20.207 62.118 20.207H74.2469Z" stroke="#4C4C4C" stroke-width="0.4" mask="url(#path-1-outside-1)"/>
<path d="M79.5836 23.0898C78.0836 24.6055 77.3336 26.4375 77.3336 28.5859C77.3336 30.7344 78.0836 32.5664 79.5836 34.082C81.0914 35.6055 82.9039 36.3672 85.0211 36.3672C87.1383 36.3672 88.9469 35.6055 90.4469 34.082C91.9547 32.5664 92.7086 30.7344 92.7086 28.5859C92.7086 26.4375 91.9547 24.6055 90.4469 23.0898C88.9469 21.5664 87.1383 20.8047 85.0211 20.8047C82.9039 20.8047 81.0914 21.5664 79.5836 23.0898ZM79.1383 34.5273C77.5133 32.8867 76.7008 30.9062 76.7008 28.5859C76.7008 26.2656 77.5133 24.2852 79.1383 22.6445C80.7633 20.9961 82.7242 20.1719 85.0211 20.1719C87.3102 20.1719 89.2672 20.9961 90.8922 22.6445C92.5172 24.2852 93.3297 26.2656 93.3297 28.5859C93.3297 30.9062 92.5172 32.8867 90.8922 34.5273C89.2672 36.1758 87.3102 37 85.0211 37C82.7242 37 80.7633 36.1758 79.1383 34.5273Z" stroke="#4C4C4C" stroke-width="0.4" mask="url(#path-1-outside-1)"/>
<path d="M108.651 20.1719C108.862 20.1719 108.967 20.2773 108.967 20.4883C108.967 20.6992 108.862 20.8047 108.651 20.8047H96.932V28.2695H106.623C106.834 28.2695 106.94 28.375 106.94 28.5859C106.94 28.7969 106.834 28.9023 106.623 28.9023H96.932V36.6836C96.932 36.8945 96.8266 37 96.6156 37C96.4047 37 96.2992 36.8945 96.2992 36.6836V20.4883C96.2992 20.2773 96.4047 20.1719 96.6156 20.1719H108.651Z" stroke="#4C4C4C" stroke-width="0.4" mask="url(#path-1-outside-1)"/>
<path d="M124.241 36.8242L117.843 21.4609L111.515 36.8242C111.476 36.9102 111.413 36.9688 111.327 37C111.28 37.0234 111.234 37.0352 111.187 37.0352C111.148 37.0352 111.109 37.0273 111.07 37.0117C110.905 36.957 110.823 36.8711 110.823 36.7539C110.823 36.7148 110.835 36.668 110.859 36.6133L117.515 20.4531C117.577 20.3203 117.687 20.2539 117.843 20.2539C117.999 20.2539 118.105 20.3203 118.159 20.4531L124.886 36.6016C124.909 36.6562 124.921 36.707 124.921 36.7539C124.921 36.8711 124.843 36.957 124.687 37.0117C124.648 37.0273 124.605 37.0352 124.558 37.0352C124.402 37.0352 124.296 36.9648 124.241 36.8242Z" stroke="#4C4C4C" stroke-width="0.4" mask="url(#path-1-outside-1)"/>
<path d="M139.715 20.1719C139.926 20.1719 140.031 20.2773 140.031 20.4883V36.6602C140.031 36.8164 139.957 36.918 139.809 36.9648C139.77 36.9805 139.73 36.9883 139.691 36.9883C139.605 36.9883 139.527 36.9453 139.457 36.8594L127.938 21.4492V36.6836C127.938 36.8945 127.832 37 127.621 37C127.41 37 127.305 36.8945 127.305 36.6836V20.5C127.305 20.3438 127.375 20.2422 127.516 20.1953C127.555 20.1797 127.594 20.1719 127.633 20.1719C127.727 20.1719 127.809 20.2188 127.879 20.3125L139.398 35.7109V20.4883C139.398 20.2773 139.504 20.1719 139.715 20.1719Z" stroke="#4C4C4C" stroke-width="0.4" mask="url(#path-1-outside-1)"/>
<mask id="path-2-outside-2" maskUnits="userSpaceOnUse" x="154.336" y="24.7891" width="79" height="13" fill="black">
<rect fill="white" x="154.336" y="24.7891" width="79" height="13"/>
<path d="M161.875 29.2969C161.891 29.3229 161.898 29.3516 161.898 29.3828C161.898 29.4141 161.891 29.4453 161.875 29.4766L158.945 36.9062C158.904 37.0052 158.831 37.0547 158.727 37.0547C158.622 37.0547 158.549 37.0078 158.508 36.9141L155.352 29.4844C155.341 29.4531 155.336 29.4219 155.336 29.3906C155.336 29.3594 155.341 29.3307 155.352 29.3047C155.372 29.2422 155.414 29.1979 155.477 29.1719C155.508 29.1562 155.536 29.1484 155.562 29.1484C155.594 29.1484 155.625 29.1562 155.656 29.1719C155.714 29.1979 155.755 29.2396 155.781 29.2969L158.719 36.2031L161.438 29.3047C161.464 29.2422 161.505 29.1979 161.562 29.1719C161.594 29.1562 161.625 29.1484 161.656 29.1484C161.688 29.1484 161.716 29.1562 161.742 29.1719C161.805 29.1979 161.849 29.2396 161.875 29.2969Z"/>
<path d="M171.378 32.7812C171.295 31.8906 170.928 31.1458 170.277 30.5469C169.62 29.9479 168.842 29.6484 167.941 29.6484C167.045 29.6484 166.266 29.9505 165.605 30.5547C164.948 31.1589 164.579 31.901 164.495 32.7812H171.378ZM171.862 33.0156C171.862 33.0208 171.86 33.0312 171.855 33.0469C171.834 33.1771 171.758 33.2422 171.628 33.2422H164.488C164.524 34.1693 164.876 34.9531 165.542 35.5938C166.209 36.2396 167.008 36.5625 167.941 36.5625C168.503 36.5625 169.037 36.4323 169.542 36.1719C170.042 35.9062 170.454 35.5417 170.777 35.0781C170.813 35.026 170.865 34.9922 170.933 34.9766H170.972C171.019 34.9766 171.063 34.9896 171.105 35.0156C171.157 35.0521 171.188 35.1042 171.198 35.1719C171.204 35.1875 171.206 35.2031 171.206 35.2188C171.206 35.2656 171.191 35.3073 171.159 35.3438C170.795 35.8698 170.326 36.2839 169.753 36.5859C169.185 36.8828 168.581 37.0312 167.941 37.0312C166.857 37.0312 165.93 36.6484 165.159 35.8828C164.394 35.112 164.011 34.1875 164.011 33.1094V32.9844C164.047 31.9271 164.446 31.0286 165.206 30.2891C165.967 29.5495 166.878 29.1797 167.941 29.1797C169.008 29.1797 169.922 29.5495 170.683 30.2891C171.443 31.0286 171.836 31.9323 171.862 33V33.0156Z"/>
<path d="M178.272 25.8359C178.334 25.8359 178.389 25.8594 178.436 25.9062C178.488 25.9531 178.514 26.0104 178.514 26.0781C178.514 26.1458 178.488 26.2031 178.436 26.25C178.389 26.2969 178.334 26.3203 178.272 26.3203C177.282 26.3203 176.436 26.6693 175.733 27.3672C175.035 28.0703 174.686 28.9167 174.686 29.9062V30.3359H177.553C177.616 30.3359 177.67 30.3594 177.717 30.4062C177.764 30.4531 177.788 30.5104 177.788 30.5781C177.788 30.6406 177.764 30.6953 177.717 30.7422C177.67 30.7891 177.616 30.8125 177.553 30.8125H174.686V36.7578C174.686 36.8255 174.663 36.8828 174.616 36.9297C174.569 36.9766 174.511 37 174.444 37C174.376 37 174.319 36.9766 174.272 36.9297C174.225 36.8828 174.202 36.8255 174.202 36.7578V29.7734C174.238 28.6797 174.649 27.75 175.436 26.9844C176.228 26.2188 177.173 25.8359 178.272 25.8359Z"/>
<path d="M183.806 29.1016C184.671 29.1016 185.41 29.4115 186.025 30.0312C186.645 30.6458 186.955 31.3854 186.955 32.25V36.7734C186.955 36.8359 186.931 36.888 186.884 36.9297C186.837 36.9766 186.783 37 186.72 37C186.658 37 186.603 36.9766 186.556 36.9297C186.515 36.888 186.494 36.8359 186.494 36.7734V32.25C186.494 31.5104 186.231 30.8776 185.705 30.3516C185.179 29.8255 184.546 29.5625 183.806 29.5625C183.067 29.5625 182.434 29.8255 181.908 30.3516C181.382 30.8776 181.119 31.5104 181.119 32.25V36.7734C181.119 36.8359 181.095 36.888 181.048 36.9297C181.007 36.9766 180.952 37 180.884 37C180.822 37 180.77 36.9766 180.728 36.9297C180.681 36.888 180.658 36.8359 180.658 36.7734V26.0156C180.658 25.9531 180.681 25.901 180.728 25.8594C180.77 25.8125 180.822 25.7891 180.884 25.7891C180.952 25.7891 181.007 25.8125 181.048 25.8594C181.095 25.901 181.119 25.9531 181.119 26.0156V30.625C181.4 30.1615 181.775 29.7943 182.244 29.5234C182.723 29.2422 183.244 29.1016 183.806 29.1016Z"/>
<path d="M195.638 30.6328C194.96 29.9609 194.145 29.625 193.192 29.625C192.239 29.625 191.424 29.9609 190.747 30.6328C190.075 31.3099 189.739 32.125 189.739 33.0781C189.739 34.0312 190.075 34.8464 190.747 35.5234C191.424 36.1953 192.239 36.5312 193.192 36.5312C194.145 36.5312 194.96 36.1953 195.638 35.5234C196.309 34.8464 196.645 34.0312 196.645 33.0781C196.645 32.125 196.309 31.3099 195.638 30.6328ZM195.966 35.8516C195.2 36.6172 194.276 37 193.192 37C192.109 37 191.184 36.6172 190.419 35.8516C189.653 35.0859 189.27 34.1615 189.27 33.0781C189.27 32 189.653 31.0755 190.419 30.3047C191.184 29.5391 192.109 29.1562 193.192 29.1562C194.276 29.1562 195.2 29.5391 195.966 30.3047C196.731 31.0755 197.114 32 197.114 33.0781C197.114 34.1615 196.731 35.0859 195.966 35.8516ZM193.958 28.3516C193.89 28.3516 193.835 28.3281 193.794 28.2812C193.747 28.2344 193.723 28.1797 193.723 28.1172C193.723 28.0495 193.747 27.9948 193.794 27.9531C193.835 27.9062 193.89 27.8828 193.958 27.8828H194.848C194.916 27.8828 194.971 27.9062 195.013 27.9531C195.059 27.9948 195.083 28.0495 195.083 28.1172C195.083 28.1797 195.059 28.2344 195.013 28.2812C194.966 28.3281 194.911 28.3516 194.848 28.3516H193.958ZM191.7 27.9531C191.747 27.9062 191.802 27.8828 191.864 27.8828H192.763C192.825 27.8828 192.88 27.9062 192.927 27.9531C192.973 27.9948 192.997 28.0495 192.997 28.1172C192.997 28.1797 192.973 28.2344 192.927 28.2812C192.88 28.3281 192.825 28.3516 192.763 28.3516H191.864C191.802 28.3516 191.747 28.3281 191.7 28.2812C191.658 28.2344 191.638 28.1797 191.638 28.1172C191.638 28.0495 191.658 27.9948 191.7 27.9531Z"/>
<path d="M202.727 29.1016C203.596 29.1016 204.339 29.4089 204.953 30.0234C205.568 30.638 205.875 31.3802 205.875 32.25V36.7734C205.875 36.8359 205.852 36.888 205.805 36.9297C205.763 36.9766 205.711 37 205.648 37C205.581 37 205.526 36.9766 205.484 36.9297C205.438 36.888 205.414 36.8359 205.414 36.7734V32.25C205.414 31.5104 205.151 30.8776 204.625 30.3516C204.099 29.8255 203.466 29.5625 202.727 29.5625C201.987 29.5625 201.354 29.8255 200.828 30.3516C200.302 30.8776 200.039 31.5104 200.039 32.25V36.7734C200.039 36.8359 200.016 36.888 199.969 36.9297C199.927 36.9766 199.872 37 199.805 37C199.742 37 199.69 36.9766 199.648 36.9297C199.602 36.888 199.578 36.8359 199.578 36.7734V32.2031C199.594 31.3438 199.906 30.612 200.516 30.0078C201.13 29.4036 201.867 29.1016 202.727 29.1016Z"/>
<path d="M211.37 29.1016C212.24 29.1016 212.982 29.4089 213.597 30.0234C214.211 30.638 214.519 31.3802 214.519 32.25V36.7734C214.519 36.8359 214.495 36.888 214.448 36.9297C214.407 36.9766 214.355 37 214.292 37C214.224 37 214.17 36.9766 214.128 36.9297C214.081 36.888 214.058 36.8359 214.058 36.7734V32.25C214.058 31.5104 213.795 30.8776 213.269 30.3516C212.743 29.8255 212.11 29.5625 211.37 29.5625C210.631 29.5625 209.998 29.8255 209.472 30.3516C208.946 30.8776 208.683 31.5104 208.683 32.25V36.7734C208.683 36.8359 208.659 36.888 208.612 36.9297C208.571 36.9766 208.516 37 208.448 37C208.386 37 208.334 36.9766 208.292 36.9297C208.245 36.888 208.222 36.8359 208.222 36.7734V32.2031C208.237 31.3438 208.55 30.612 209.159 30.0078C209.774 29.4036 210.511 29.1016 211.37 29.1016Z"/>
<path d="M223.256 29.1016C223.324 29.1016 223.379 29.125 223.42 29.1719C223.467 29.2188 223.491 29.2734 223.491 29.3359V33.8516C223.491 34.7214 223.176 35.4635 222.545 36.0781C221.92 36.6927 221.162 37 220.272 37C219.392 37 218.639 36.6979 218.014 36.0938C217.389 35.4896 217.069 34.7578 217.053 33.8984V29.3359C217.053 29.2734 217.077 29.2188 217.123 29.1719C217.17 29.125 217.225 29.1016 217.287 29.1016C217.355 29.1016 217.41 29.125 217.452 29.1719C217.498 29.2188 217.522 29.2734 217.522 29.3359V33.8516C217.522 34.5911 217.79 35.2214 218.327 35.7422C218.868 36.2682 219.517 36.5312 220.272 36.5312C221.032 36.5312 221.681 36.2682 222.217 35.7422C222.754 35.2214 223.022 34.5911 223.022 33.8516V29.3359C223.022 29.2734 223.045 29.2188 223.092 29.1719C223.139 29.125 223.194 29.1016 223.256 29.1016Z"/>
<path d="M229.048 29.1016C229.918 29.1016 230.66 29.4089 231.275 30.0234C231.89 30.638 232.197 31.3802 232.197 32.25V36.7734C232.197 36.8359 232.173 36.888 232.127 36.9297C232.085 36.9766 232.033 37 231.97 37C231.903 37 231.848 36.9766 231.806 36.9297C231.759 36.888 231.736 36.8359 231.736 36.7734V32.25C231.736 31.5104 231.473 30.8776 230.947 30.3516C230.421 29.8255 229.788 29.5625 229.048 29.5625C228.309 29.5625 227.676 29.8255 227.15 30.3516C226.624 30.8776 226.361 31.5104 226.361 32.25V36.7734C226.361 36.8359 226.338 36.888 226.291 36.9297C226.249 36.9766 226.194 37 226.127 37C226.064 37 226.012 36.9766 225.97 36.9297C225.923 36.888 225.9 36.8359 225.9 36.7734V32.2031C225.916 31.3438 226.228 30.612 226.838 30.0078C227.452 29.4036 228.189 29.1016 229.048 29.1016Z"/>
</mask>
<path d="M161.875 29.2969C161.891 29.3229 161.898 29.3516 161.898 29.3828C161.898 29.4141 161.891 29.4453 161.875 29.4766L158.945 36.9062C158.904 37.0052 158.831 37.0547 158.727 37.0547C158.622 37.0547 158.549 37.0078 158.508 36.9141L155.352 29.4844C155.341 29.4531 155.336 29.4219 155.336 29.3906C155.336 29.3594 155.341 29.3307 155.352 29.3047C155.372 29.2422 155.414 29.1979 155.477 29.1719C155.508 29.1562 155.536 29.1484 155.562 29.1484C155.594 29.1484 155.625 29.1562 155.656 29.1719C155.714 29.1979 155.755 29.2396 155.781 29.2969L158.719 36.2031L161.438 29.3047C161.464 29.2422 161.505 29.1979 161.562 29.1719C161.594 29.1562 161.625 29.1484 161.656 29.1484C161.688 29.1484 161.716 29.1562 161.742 29.1719C161.805 29.1979 161.849 29.2396 161.875 29.2969Z" fill="#4C4C4C"/>
<path d="M171.378 32.7812C171.295 31.8906 170.928 31.1458 170.277 30.5469C169.62 29.9479 168.842 29.6484 167.941 29.6484C167.045 29.6484 166.266 29.9505 165.605 30.5547C164.948 31.1589 164.579 31.901 164.495 32.7812H171.378ZM171.862 33.0156C171.862 33.0208 171.86 33.0312 171.855 33.0469C171.834 33.1771 171.758 33.2422 171.628 33.2422H164.488C164.524 34.1693 164.876 34.9531 165.542 35.5938C166.209 36.2396 167.008 36.5625 167.941 36.5625C168.503 36.5625 169.037 36.4323 169.542 36.1719C170.042 35.9062 170.454 35.5417 170.777 35.0781C170.813 35.026 170.865 34.9922 170.933 34.9766H170.972C171.019 34.9766 171.063 34.9896 171.105 35.0156C171.157 35.0521 171.188 35.1042 171.198 35.1719C171.204 35.1875 171.206 35.2031 171.206 35.2188C171.206 35.2656 171.191 35.3073 171.159 35.3438C170.795 35.8698 170.326 36.2839 169.753 36.5859C169.185 36.8828 168.581 37.0312 167.941 37.0312C166.857 37.0312 165.93 36.6484 165.159 35.8828C164.394 35.112 164.011 34.1875 164.011 33.1094V32.9844C164.047 31.9271 164.446 31.0286 165.206 30.2891C165.967 29.5495 166.878 29.1797 167.941 29.1797C169.008 29.1797 169.922 29.5495 170.683 30.2891C171.443 31.0286 171.836 31.9323 171.862 33V33.0156Z" fill="#4C4C4C"/>
<path d="M178.272 25.8359C178.334 25.8359 178.389 25.8594 178.436 25.9062C178.488 25.9531 178.514 26.0104 178.514 26.0781C178.514 26.1458 178.488 26.2031 178.436 26.25C178.389 26.2969 178.334 26.3203 178.272 26.3203C177.282 26.3203 176.436 26.6693 175.733 27.3672C175.035 28.0703 174.686 28.9167 174.686 29.9062V30.3359H177.553C177.616 30.3359 177.67 30.3594 177.717 30.4062C177.764 30.4531 177.788 30.5104 177.788 30.5781C177.788 30.6406 177.764 30.6953 177.717 30.7422C177.67 30.7891 177.616 30.8125 177.553 30.8125H174.686V36.7578C174.686 36.8255 174.663 36.8828 174.616 36.9297C174.569 36.9766 174.511 37 174.444 37C174.376 37 174.319 36.9766 174.272 36.9297C174.225 36.8828 174.202 36.8255 174.202 36.7578V29.7734C174.238 28.6797 174.649 27.75 175.436 26.9844C176.228 26.2188 177.173 25.8359 178.272 25.8359Z" fill="#4C4C4C"/>
<path d="M183.806 29.1016C184.671 29.1016 185.41 29.4115 186.025 30.0312C186.645 30.6458 186.955 31.3854 186.955 32.25V36.7734C186.955 36.8359 186.931 36.888 186.884 36.9297C186.837 36.9766 186.783 37 186.72 37C186.658 37 186.603 36.9766 186.556 36.9297C186.515 36.888 186.494 36.8359 186.494 36.7734V32.25C186.494 31.5104 186.231 30.8776 185.705 30.3516C185.179 29.8255 184.546 29.5625 183.806 29.5625C183.067 29.5625 182.434 29.8255 181.908 30.3516C181.382 30.8776 181.119 31.5104 181.119 32.25V36.7734C181.119 36.8359 181.095 36.888 181.048 36.9297C181.007 36.9766 180.952 37 180.884 37C180.822 37 180.77 36.9766 180.728 36.9297C180.681 36.888 180.658 36.8359 180.658 36.7734V26.0156C180.658 25.9531 180.681 25.901 180.728 25.8594C180.77 25.8125 180.822 25.7891 180.884 25.7891C180.952 25.7891 181.007 25.8125 181.048 25.8594C181.095 25.901 181.119 25.9531 181.119 26.0156V30.625C181.4 30.1615 181.775 29.7943 182.244 29.5234C182.723 29.2422 183.244 29.1016 183.806 29.1016Z" fill="#4C4C4C"/>
<path d="M195.638 30.6328C194.96 29.9609 194.145 29.625 193.192 29.625C192.239 29.625 191.424 29.9609 190.747 30.6328C190.075 31.3099 189.739 32.125 189.739 33.0781C189.739 34.0312 190.075 34.8464 190.747 35.5234C191.424 36.1953 192.239 36.5312 193.192 36.5312C194.145 36.5312 194.96 36.1953 195.638 35.5234C196.309 34.8464 196.645 34.0312 196.645 33.0781C196.645 32.125 196.309 31.3099 195.638 30.6328ZM195.966 35.8516C195.2 36.6172 194.276 37 193.192 37C192.109 37 191.184 36.6172 190.419 35.8516C189.653 35.0859 189.27 34.1615 189.27 33.0781C189.27 32 189.653 31.0755 190.419 30.3047C191.184 29.5391 192.109 29.1562 193.192 29.1562C194.276 29.1562 195.2 29.5391 195.966 30.3047C196.731 31.0755 197.114 32 197.114 33.0781C197.114 34.1615 196.731 35.0859 195.966 35.8516ZM193.958 28.3516C193.89 28.3516 193.835 28.3281 193.794 28.2812C193.747 28.2344 193.723 28.1797 193.723 28.1172C193.723 28.0495 193.747 27.9948 193.794 27.9531C193.835 27.9062 193.89 27.8828 193.958 27.8828H194.848C194.916 27.8828 194.971 27.9062 195.013 27.9531C195.059 27.9948 195.083 28.0495 195.083 28.1172C195.083 28.1797 195.059 28.2344 195.013 28.2812C194.966 28.3281 194.911 28.3516 194.848 28.3516H193.958ZM191.7 27.9531C191.747 27.9062 191.802 27.8828 191.864 27.8828H192.763C192.825 27.8828 192.88 27.9062 192.927 27.9531C192.973 27.9948 192.997 28.0495 192.997 28.1172C192.997 28.1797 192.973 28.2344 192.927 28.2812C192.88 28.3281 192.825 28.3516 192.763 28.3516H191.864C191.802 28.3516 191.747 28.3281 191.7 28.2812C191.658 28.2344 191.638 28.1797 191.638 28.1172C191.638 28.0495 191.658 27.9948 191.7 27.9531Z" fill="#4C4C4C"/>
<path d="M202.727 29.1016C203.596 29.1016 204.339 29.4089 204.953 30.0234C205.568 30.638 205.875 31.3802 205.875 32.25V36.7734C205.875 36.8359 205.852 36.888 205.805 36.9297C205.763 36.9766 205.711 37 205.648 37C205.581 37 205.526 36.9766 205.484 36.9297C205.438 36.888 205.414 36.8359 205.414 36.7734V32.25C205.414 31.5104 205.151 30.8776 204.625 30.3516C204.099 29.8255 203.466 29.5625 202.727 29.5625C201.987 29.5625 201.354 29.8255 200.828 30.3516C200.302 30.8776 200.039 31.5104 200.039 32.25V36.7734C200.039 36.8359 200.016 36.888 199.969 36.9297C199.927 36.9766 199.872 37 199.805 37C199.742 37 199.69 36.9766 199.648 36.9297C199.602 36.888 199.578 36.8359 199.578 36.7734V32.2031C199.594 31.3438 199.906 30.612 200.516 30.0078C201.13 29.4036 201.867 29.1016 202.727 29.1016Z" fill="#4C4C4C"/>
<path d="M211.37 29.1016C212.24 29.1016 212.982 29.4089 213.597 30.0234C214.211 30.638 214.519 31.3802 214.519 32.25V36.7734C214.519 36.8359 214.495 36.888 214.448 36.9297C214.407 36.9766 214.355 37 214.292 37C214.224 37 214.17 36.9766 214.128 36.9297C214.081 36.888 214.058 36.8359 214.058 36.7734V32.25C214.058 31.5104 213.795 30.8776 213.269 30.3516C212.743 29.8255 212.11 29.5625 211.37 29.5625C210.631 29.5625 209.998 29.8255 209.472 30.3516C208.946 30.8776 208.683 31.5104 208.683 32.25V36.7734C208.683 36.8359 208.659 36.888 208.612 36.9297C208.571 36.9766 208.516 37 208.448 37C208.386 37 208.334 36.9766 208.292 36.9297C208.245 36.888 208.222 36.8359 208.222 36.7734V32.2031C208.237 31.3438 208.55 30.612 209.159 30.0078C209.774 29.4036 210.511 29.1016 211.37 29.1016Z" fill="#4C4C4C"/>
<path d="M223.256 29.1016C223.324 29.1016 223.379 29.125 223.42 29.1719C223.467 29.2188 223.491 29.2734 223.491 29.3359V33.8516C223.491 34.7214 223.176 35.4635 222.545 36.0781C221.92 36.6927 221.162 37 220.272 37C219.392 37 218.639 36.6979 218.014 36.0938C217.389 35.4896 217.069 34.7578 217.053 33.8984V29.3359C217.053 29.2734 217.077 29.2188 217.123 29.1719C217.17 29.125 217.225 29.1016 217.287 29.1016C217.355 29.1016 217.41 29.125 217.452 29.1719C217.498 29.2188 217.522 29.2734 217.522 29.3359V33.8516C217.522 34.5911 217.79 35.2214 218.327 35.7422C218.868 36.2682 219.517 36.5312 220.272 36.5312C221.032 36.5312 221.681 36.2682 222.217 35.7422C222.754 35.2214 223.022 34.5911 223.022 33.8516V29.3359C223.022 29.2734 223.045 29.2188 223.092 29.1719C223.139 29.125 223.194 29.1016 223.256 29.1016Z" fill="#4C4C4C"/>
<path d="M229.048 29.1016C229.918 29.1016 230.66 29.4089 231.275 30.0234C231.89 30.638 232.197 31.3802 232.197 32.25V36.7734C232.197 36.8359 232.173 36.888 232.127 36.9297C232.085 36.9766 232.033 37 231.97 37C231.903 37 231.848 36.9766 231.806 36.9297C231.759 36.888 231.736 36.8359 231.736 36.7734V32.25C231.736 31.5104 231.473 30.8776 230.947 30.3516C230.421 29.8255 229.788 29.5625 229.048 29.5625C228.309 29.5625 227.676 29.8255 227.15 30.3516C226.624 30.8776 226.361 31.5104 226.361 32.25V36.7734C226.361 36.8359 226.338 36.888 226.291 36.9297C226.249 36.9766 226.194 37 226.127 37C226.064 37 226.012 36.9766 225.97 36.9297C225.923 36.888 225.9 36.8359 225.9 36.7734V32.2031C225.916 31.3438 226.228 30.612 226.838 30.0078C227.452 29.4036 228.189 29.1016 229.048 29.1016Z" fill="#4C4C4C"/>
<path d="M161.875 29.2969C161.891 29.3229 161.898 29.3516 161.898 29.3828C161.898 29.4141 161.891 29.4453 161.875 29.4766L158.945 36.9062C158.904 37.0052 158.831 37.0547 158.727 37.0547C158.622 37.0547 158.549 37.0078 158.508 36.9141L155.352 29.4844C155.341 29.4531 155.336 29.4219 155.336 29.3906C155.336 29.3594 155.341 29.3307 155.352 29.3047C155.372 29.2422 155.414 29.1979 155.477 29.1719C155.508 29.1562 155.536 29.1484 155.562 29.1484C155.594 29.1484 155.625 29.1562 155.656 29.1719C155.714 29.1979 155.755 29.2396 155.781 29.2969L158.719 36.2031L161.438 29.3047C161.464 29.2422 161.505 29.1979 161.562 29.1719C161.594 29.1562 161.625 29.1484 161.656 29.1484C161.688 29.1484 161.716 29.1562 161.742 29.1719C161.805 29.1979 161.849 29.2396 161.875 29.2969Z" stroke="#4C4C4C" stroke-width="0.4" mask="url(#path-2-outside-2)"/>
<path d="M171.378 32.7812C171.295 31.8906 170.928 31.1458 170.277 30.5469C169.62 29.9479 168.842 29.6484 167.941 29.6484C167.045 29.6484 166.266 29.9505 165.605 30.5547C164.948 31.1589 164.579 31.901 164.495 32.7812H171.378ZM171.862 33.0156C171.862 33.0208 171.86 33.0312 171.855 33.0469C171.834 33.1771 171.758 33.2422 171.628 33.2422H164.488C164.524 34.1693 164.876 34.9531 165.542 35.5938C166.209 36.2396 167.008 36.5625 167.941 36.5625C168.503 36.5625 169.037 36.4323 169.542 36.1719C170.042 35.9062 170.454 35.5417 170.777 35.0781C170.813 35.026 170.865 34.9922 170.933 34.9766H170.972C171.019 34.9766 171.063 34.9896 171.105 35.0156C171.157 35.0521 171.188 35.1042 171.198 35.1719C171.204 35.1875 171.206 35.2031 171.206 35.2188C171.206 35.2656 171.191 35.3073 171.159 35.3438C170.795 35.8698 170.326 36.2839 169.753 36.5859C169.185 36.8828 168.581 37.0312 167.941 37.0312C166.857 37.0312 165.93 36.6484 165.159 35.8828C164.394 35.112 164.011 34.1875 164.011 33.1094V32.9844C164.047 31.9271 164.446 31.0286 165.206 30.2891C165.967 29.5495 166.878 29.1797 167.941 29.1797C169.008 29.1797 169.922 29.5495 170.683 30.2891C171.443 31.0286 171.836 31.9323 171.862 33V33.0156Z" stroke="#4C4C4C" stroke-width="0.4" mask="url(#path-2-outside-2)"/>
<path d="M178.272 25.8359C178.334 25.8359 178.389 25.8594 178.436 25.9062C178.488 25.9531 178.514 26.0104 178.514 26.0781C178.514 26.1458 178.488 26.2031 178.436 26.25C178.389 26.2969 178.334 26.3203 178.272 26.3203C177.282 26.3203 176.436 26.6693 175.733 27.3672C175.035 28.0703 174.686 28.9167 174.686 29.9062V30.3359H177.553C177.616 30.3359 177.67 30.3594 177.717 30.4062C177.764 30.4531 177.788 30.5104 177.788 30.5781C177.788 30.6406 177.764 30.6953 177.717 30.7422C177.67 30.7891 177.616 30.8125 177.553 30.8125H174.686V36.7578C174.686 36.8255 174.663 36.8828 174.616 36.9297C174.569 36.9766 174.511 37 174.444 37C174.376 37 174.319 36.9766 174.272 36.9297C174.225 36.8828 174.202 36.8255 174.202 36.7578V29.7734C174.238 28.6797 174.649 27.75 175.436 26.9844C176.228 26.2188 177.173 25.8359 178.272 25.8359Z" stroke="#4C4C4C" stroke-width="0.4" mask="url(#path-2-outside-2)"/>
<path d="M183.806 29.1016C184.671 29.1016 185.41 29.4115 186.025 30.0312C186.645 30.6458 186.955 31.3854 186.955 32.25V36.7734C186.955 36.8359 186.931 36.888 186.884 36.9297C186.837 36.9766 186.783 37 186.72 37C186.658 37 186.603 36.9766 186.556 36.9297C186.515 36.888 186.494 36.8359 186.494 36.7734V32.25C186.494 31.5104 186.231 30.8776 185.705 30.3516C185.179 29.8255 184.546 29.5625 183.806 29.5625C183.067 29.5625 182.434 29.8255 181.908 30.3516C181.382 30.8776 181.119 31.5104 181.119 32.25V36.7734C181.119 36.8359 181.095 36.888 181.048 36.9297C181.007 36.9766 180.952 37 180.884 37C180.822 37 180.77 36.9766 180.728 36.9297C180.681 36.888 180.658 36.8359 180.658 36.7734V26.0156C180.658 25.9531 180.681 25.901 180.728 25.8594C180.77 25.8125 180.822 25.7891 180.884 25.7891C180.952 25.7891 181.007 25.8125 181.048 25.8594C181.095 25.901 181.119 25.9531 181.119 26.0156V30.625C181.4 30.1615 181.775 29.7943 182.244 29.5234C182.723 29.2422 183.244 29.1016 183.806 29.1016Z" stroke="#4C4C4C" stroke-width="0.4" mask="url(#path-2-outside-2)"/>
<path d="M195.638 30.6328C194.96 29.9609 194.145 29.625 193.192 29.625C192.239 29.625 191.424 29.9609 190.747 30.6328C190.075 31.3099 189.739 32.125 189.739 33.0781C189.739 34.0312 190.075 34.8464 190.747 35.5234C191.424 36.1953 192.239 36.5312 193.192 36.5312C194.145 36.5312 194.96 36.1953 195.638 35.5234C196.309 34.8464 196.645 34.0312 196.645 33.0781C196.645 32.125 196.309 31.3099 195.638 30.6328ZM195.966 35.8516C195.2 36.6172 194.276 37 193.192 37C192.109 37 191.184 36.6172 190.419 35.8516C189.653 35.0859 189.27 34.1615 189.27 33.0781C189.27 32 189.653 31.0755 190.419 30.3047C191.184 29.5391 192.109 29.1562 193.192 29.1562C194.276 29.1562 195.2 29.5391 195.966 30.3047C196.731 31.0755 197.114 32 197.114 33.0781C197.114 34.1615 196.731 35.0859 195.966 35.8516ZM193.958 28.3516C193.89 28.3516 193.835 28.3281 193.794 28.2812C193.747 28.2344 193.723 28.1797 193.723 28.1172C193.723 28.0495 193.747 27.9948 193.794 27.9531C193.835 27.9062 193.89 27.8828 193.958 27.8828H194.848C194.916 27.8828 194.971 27.9062 195.013 27.9531C195.059 27.9948 195.083 28.0495 195.083 28.1172C195.083 28.1797 195.059 28.2344 195.013 28.2812C194.966 28.3281 194.911 28.3516 194.848 28.3516H193.958ZM191.7 27.9531C191.747 27.9062 191.802 27.8828 191.864 27.8828H192.763C192.825 27.8828 192.88 27.9062 192.927 27.9531C192.973 27.9948 192.997 28.0495 192.997 28.1172C192.997 28.1797 192.973 28.2344 192.927 28.2812C192.88 28.3281 192.825 28.3516 192.763 28.3516H191.864C191.802 28.3516 191.747 28.3281 191.7 28.2812C191.658 28.2344 191.638 28.1797 191.638 28.1172C191.638 28.0495 191.658 27.9948 191.7 27.9531Z" stroke="#4C4C4C" stroke-width="0.4" mask="url(#path-2-outside-2)"/>
<path d="M202.727 29.1016C203.596 29.1016 204.339 29.4089 204.953 30.0234C205.568 30.638 205.875 31.3802 205.875 32.25V36.7734C205.875 36.8359 205.852 36.888 205.805 36.9297C205.763 36.9766 205.711 37 205.648 37C205.581 37 205.526 36.9766 205.484 36.9297C205.438 36.888 205.414 36.8359 205.414 36.7734V32.25C205.414 31.5104 205.151 30.8776 204.625 30.3516C204.099 29.8255 203.466 29.5625 202.727 29.5625C201.987 29.5625 201.354 29.8255 200.828 30.3516C200.302 30.8776 200.039 31.5104 200.039 32.25V36.7734C200.039 36.8359 200.016 36.888 199.969 36.9297C199.927 36.9766 199.872 37 199.805 37C199.742 37 199.69 36.9766 199.648 36.9297C199.602 36.888 199.578 36.8359 199.578 36.7734V32.2031C199.594 31.3438 199.906 30.612 200.516 30.0078C201.13 29.4036 201.867 29.1016 202.727 29.1016Z" stroke="#4C4C4C" stroke-width="0.4" mask="url(#path-2-outside-2)"/>
<path d="M211.37 29.1016C212.24 29.1016 212.982 29.4089 213.597 30.0234C214.211 30.638 214.519 31.3802 214.519 32.25V36.7734C214.519 36.8359 214.495 36.888 214.448 36.9297C214.407 36.9766 214.355 37 214.292 37C214.224 37 214.17 36.9766 214.128 36.9297C214.081 36.888 214.058 36.8359 214.058 36.7734V32.25C214.058 31.5104 213.795 30.8776 213.269 30.3516C212.743 29.8255 212.11 29.5625 211.37 29.5625C210.631 29.5625 209.998 29.8255 209.472 30.3516C208.946 30.8776 208.683 31.5104 208.683 32.25V36.7734C208.683 36.8359 208.659 36.888 208.612 36.9297C208.571 36.9766 208.516 37 208.448 37C208.386 37 208.334 36.9766 208.292 36.9297C208.245 36.888 208.222 36.8359 208.222 36.7734V32.2031C208.237 31.3438 208.55 30.612 209.159 30.0078C209.774 29.4036 210.511 29.1016 211.37 29.1016Z" stroke="#4C4C4C" stroke-width="0.4" mask="url(#path-2-outside-2)"/>
<path d="M223.256 29.1016C223.324 29.1016 223.379 29.125 223.42 29.1719C223.467 29.2188 223.491 29.2734 223.491 29.3359V33.8516C223.491 34.7214 223.176 35.4635 222.545 36.0781C221.92 36.6927 221.162 37 220.272 37C219.392 37 218.639 36.6979 218.014 36.0938C217.389 35.4896 217.069 34.7578 217.053 33.8984V29.3359C217.053 29.2734 217.077 29.2188 217.123 29.1719C217.17 29.125 217.225 29.1016 217.287 29.1016C217.355 29.1016 217.41 29.125 217.452 29.1719C217.498 29.2188 217.522 29.2734 217.522 29.3359V33.8516C217.522 34.5911 217.79 35.2214 218.327 35.7422C218.868 36.2682 219.517 36.5312 220.272 36.5312C221.032 36.5312 221.681 36.2682 222.217 35.7422C222.754 35.2214 223.022 34.5911 223.022 33.8516V29.3359C223.022 29.2734 223.045 29.2188 223.092 29.1719C223.139 29.125 223.194 29.1016 223.256 29.1016Z" stroke="#4C4C4C" stroke-width="0.4" mask="url(#path-2-outside-2)"/>
<path d="M229.048 29.1016C229.918 29.1016 230.66 29.4089 231.275 30.0234C231.89 30.638 232.197 31.3802 232.197 32.25V36.7734C232.197 36.8359 232.173 36.888 232.127 36.9297C232.085 36.9766 232.033 37 231.97 37C231.903 37 231.848 36.9766 231.806 36.9297C231.759 36.888 231.736 36.8359 231.736 36.7734V32.25C231.736 31.5104 231.473 30.8776 230.947 30.3516C230.421 29.8255 229.788 29.5625 229.048 29.5625C228.309 29.5625 227.676 29.8255 227.15 30.3516C226.624 30.8776 226.361 31.5104 226.361 32.25V36.7734C226.361 36.8359 226.338 36.888 226.291 36.9297C226.249 36.9766 226.194 37 226.127 37C226.064 37 226.012 36.9766 225.97 36.9297C225.923 36.888 225.9 36.8359 225.9 36.7734V32.2031C225.916 31.3438 226.228 30.612 226.838 30.0078C227.452 29.4036 228.189 29.1016 229.048 29.1016Z" stroke="#4C4C4C" stroke-width="0.4" mask="url(#path-2-outside-2)"/>
<path d="M20.5 2L2 20.5L20.5 39L39 20.5L20.5 2ZM20.5 18L2 36.5L20.5 55L39 36.5L20.5 18Z" stroke="#E5AE39" stroke-width="1.5"/>
<path d="M150 20L150 37" stroke="#E5AE39" stroke-width="1.5"/>
</svg>
